<svg width="120" height="120" viewBox="0 0 120 120" fill="none" xmlns="http://www.w3.org/2000/svg">
<g clip-path="url(#clip0_847_21)">
<path d="M119.308 0.692261H0.692322V119.308H119.308V0.692261Z" fill="#FF9300"/>
<path d="M119.538 0V119.077H1.38464L119.538 0Z" fill="black"/>
<path d="M25.6475 29.4513L25.6543 29.4604L25.6617 29.4689C25.9579 29.813 26.1182 30.2658 26.1182 30.8572V52.4677V52.8139H26.4643H43.0783H43.4245V52.4677V30.8572C43.4245 30.2553 43.5681 29.7959 43.8276 29.4513L43.5511 29.2431L43.8276 29.4513C44.0817 29.1139 44.3872 28.9615 44.7667 28.9615H53.4789C53.8583 28.9615 54.1639 29.1139 54.4182 29.4513C54.6776 29.7959 54.8211 30.2553 54.8211 30.8572V89.1429C54.8211 89.7448 54.6776 90.204 54.4182 90.5488C54.1639 90.8862 53.8583 91.0385 53.4789 91.0385H44.7667C44.3872 91.0385 44.0817 90.8862 43.8276 90.5488C43.5681 90.204 43.4245 89.7448 43.4245 89.1429V66.8151V66.4689H43.0783H26.4643H26.1182V66.8151V89.1429C26.1182 89.7342 25.9579 90.1869 25.6617 90.5312L25.6543 90.5395L25.6475 90.5488C25.3934 90.8862 25.0878 91.0385 24.7083 91.0385H15.9961C15.6167 91.0385 15.3111 90.8862 15.057 90.5488C14.7975 90.204 14.6539 89.7448 14.6539 89.1429V30.8572C14.6539 30.2605 14.795 29.8039 15.0503 29.4603C15.3585 29.1057 15.6717 28.9615 15.9961 28.9615H24.7083C25.0878 28.9615 25.3934 29.1139 25.6475 29.4513ZM105.176 88.4825L105.182 88.4945L105.188 88.506C105.282 88.6731 105.346 88.9348 105.346 89.322C105.346 89.856 105.207 90.2885 104.943 90.6383C104.738 90.9102 104.481 91.0385 104.139 91.0385H94.1437C93.57 91.0385 93.2008 90.9042 92.9728 90.6937C92.7245 90.4172 92.4282 90.0249 92.0839 89.5122L81.7625 66.6725L81.6706 66.4689H81.4473H76.7871H76.4409V66.8151V89.1429C76.4409 89.7342 76.2803 90.1869 75.9845 90.5312L75.9771 90.5395L75.9702 90.5488C75.7159 90.8862 75.4103 91.0385 75.0309 91.0385H66.3189C65.9396 91.0385 65.634 90.8862 65.3797 90.5488L65.1033 90.7569L65.3797 90.5488C65.1203 90.204 64.9768 89.7448 64.9768 89.1429V30.8572C64.9768 30.2604 65.1176 29.8039 65.3728 29.4603C65.6811 29.1057 65.9945 28.9615 66.3189 28.9615H75.0309C75.4103 28.9615 75.7159 29.1139 75.9702 29.4514L75.9771 29.4604L75.9845 29.4689C76.2803 29.813 76.4409 30.2659 76.4409 30.8572V52.4677V52.8065L76.7793 52.8139L80.8994 52.9034L81.1293 52.9085L81.2229 52.6985L91.1506 30.4603L91.152 30.4575C91.3796 29.9356 91.6745 29.5669 92.0257 29.3273C92.376 29.0886 92.8062 28.9615 93.3333 28.9615H103.126C103.41 28.9615 103.65 29.079 103.862 29.3617C104.079 29.6491 104.198 30.0203 104.198 30.4985C104.198 30.6694 104.13 30.9745 103.955 31.4409L91.398 58.6892L91.3311 58.8351L91.3989 58.9809L105.176 88.4825Z" fill="white" stroke="black" stroke-width="1.5"/>
<path d="M119.308 0.692261H0.692322V119.308H119.308V0.692261Z" stroke="black" stroke-width="3"/>
</g>
<defs>
<clipPath id="clip0_847_21">
<rect width="120" height="120" fill="white"/>
</clipPath>
</defs>
</svg>
