<svg width="35" height="35" viewBox="0 0 35 35" fill="none" xmlns="http://www.w3.org/2000/svg">
<g clip-path="url(#clip0_48:388)">
<path d="M16.6299 12.5757C16.2401 11.9992 14.6042 10.7046 14.9965 10.029C15.1644 9.72323 15.5567 9.62351 15.8524 9.80638C18.5726 11.4718 22.6021 14.6067 22.2363 18.1664C21.9741 19.7979 20.7956 21.0557 19.691 22.1824C18.5084 23.3608 17.2573 24.4242 16.0617 25.5561C15.5101 26.0934 14.6691 25.2173 15.2398 24.6896C16.7184 23.1061 21.2898 19.6508 20.4699 17.3531C19.6661 15.4805 17.942 14.1283 16.6299 12.5757Z" fill="white"/>
<path d="M0.171261 15.1084C2.00315 2.52752 17.4068 -4.69417 27.6796 3.48894C30.7885 5.90249 33.3846 9.14541 34.4231 12.9926C38.1721 26.8946 22.915 40.4673 9.91726 32.7419C9.66999 32.6316 9.14353 32.2694 8.90015 32.1367C8.01234 31.5735 8.89145 30.2509 9.75336 30.8491C12.1392 32.4878 14.9631 33.5703 17.8745 33.6347C30.2091 33.9773 38.4295 17.859 30.4236 8.25625C29.3652 6.93114 28.1149 5.72175 26.7702 4.68963C17.5371 -2.6402 3.51636 4.04555 2.07066 15.3714C1.02277 23.3679 6.56515 26.4404 4.54629 27.6798C4.05202 27.9955 3.39563 27.8509 3.07992 27.3568C2.50753 26.4609 1.99324 25.5241 1.55716 24.5479C0.230282 21.6159 -0.305309 18.3025 0.171261 15.1084Z" fill="white"/>
</g>
<defs>
<clipPath id="clip0_48:388">
<rect width="35" height="35" fill="white" transform="matrix(-1 0 0 1 35 0)"/>
</clipPath>
</defs>
</svg>
