<svg width="35" height="35" viewBox="0 0 35 35" fill="none" xmlns="http://www.w3.org/2000/svg">
<g clip-path="url(#clip0_48:394)">
<path d="M18.3701 12.5757C18.7599 11.9992 20.3958 10.7046 20.0035 10.029C19.8356 9.72323 19.4433 9.62351 19.1476 9.80638C16.4274 11.4718 12.3979 14.6067 12.7637 18.1664C13.0259 19.7979 14.2044 21.0557 15.309 22.1824C16.4916 23.3608 17.7427 24.4242 18.9383 25.5561C19.4899 26.0934 20.3309 25.2173 19.7602 24.6896C18.2816 23.1061 13.7102 19.6508 14.5301 17.3531C15.3339 15.4805 17.058 14.1283 18.3701 12.5757Z" fill="white"/>
<path d="M34.8287 15.1084C32.9968 2.52752 17.5932 -4.69417 7.32036 3.48894C4.21148 5.9025 1.61541 9.14541 0.576928 12.9926C-3.17206 26.8946 12.085 40.4673 25.0827 32.7419C25.33 32.6316 25.8565 32.2694 26.0998 32.1367C26.9877 31.5735 26.1086 30.2509 25.2466 30.8491C22.8608 32.4878 20.0369 33.5703 17.1255 33.6347C4.79088 33.9773 -3.42953 17.859 4.57638 8.25625C5.63482 6.93114 6.88512 5.72175 8.22976 4.68963C17.4629 -2.6402 31.4836 4.04555 32.9293 15.3714C33.9772 23.3679 28.4348 26.4404 30.4537 27.6798C30.948 27.9955 31.6044 27.8509 31.9201 27.3568C32.4925 26.4609 33.0068 25.5241 33.4428 24.5479C34.7697 21.6159 35.3053 18.3025 34.8287 15.1084V15.1084Z" fill="white"/>
</g>
<defs>
<clipPath id="clip0_48:394">
<rect width="35" height="35" fill="white"/>
</clipPath>
</defs>
</svg>
