<svg width="24" height="24" viewBox="0 0 24 24" fill="none" xmlns="http://www.w3.org/2000/svg">
<g clip-path="url(#clip0_80:78)">
<path d="M12.0055 1.9458V4.26729H4.26721V0.398132H5.42796L12.0055 1.9458Z" fill="#FFB44E"/>
<path d="M12.0055 4.2674H2.71957L0.398071 12.4661L2.71957 23.6132H5.04106V18.9702C5.04106 18.5445 5.38944 18.1964 5.81489 18.1964H8.91022C9.33586 18.1964 9.68405 18.5445 9.68405 18.9702V23.6132H12.0055V9.68422H12.7794L13.5147 9.85047L13.5532 9.68422V4.2674H12.0055Z" fill="#E6E9ED"/>
<path d="M9.68406 18.9702V23.6132H5.04108V18.9702C5.04108 18.5445 5.38945 18.1964 5.81491 18.1964H8.91023C9.33587 18.1964 9.68406 18.5445 9.68406 18.9702Z" fill="#CF9E76"/>
<path d="M19.7438 3.49347V6.58879H15.8747V4.2673L18.5831 3.49347H19.7438Z" fill="#969FAA"/>
<path d="M20.5177 6.58893V11.2319L20.4714 11.4331L15.0701 10.2064L15.1009 10.0712V6.58893H20.5177Z" fill="#E6E9ED"/>
<path d="M21.2915 11.6188V23.6132H12.0056V9.68427H12.7794L13.5147 9.85052L15.0701 10.2065L20.4714 11.4331L21.2915 11.6188Z" fill="#FFB44E"/>
<path d="M10.4579 6.58893H4.26721V8.13658H12.0055V6.58893H10.4579Z" fill="#69D6F4"/>
<path d="M8.91021 10.458H2.71954V12.0057H12.0055V10.458H8.91021Z" fill="#69D6F4"/>
<path d="M8.91021 14.3273H2.71954V15.8749H12.0055V14.3273H8.91021Z" fill="#69D6F4"/>
<path d="M16.6485 18.9702H18.1962V20.5179H16.6485V18.9702Z" fill="#69D6F4"/>
<path d="M18.1962 18.9702H19.7438V20.5179H18.1962V18.9702Z" fill="#69D6F4"/>
<path d="M13.5532 18.9702H16.6485V20.5179H13.5532V18.9702Z" fill="#69D6F4"/>
<path d="M16.6485 15.8749H18.1962V17.4226H16.6485V15.8749Z" fill="#69D6F4"/>
<path d="M18.1962 15.8749H19.7438V17.4226H18.1962V15.8749Z" fill="#69D6F4"/>
<path d="M13.5532 15.8749H16.6485V17.4226H13.5532V15.8749Z" fill="#69D6F4"/>
<path d="M21.6784 11.3094L20.9046 11.1336V6.20152H20.1308V3.10619H18.5831L15.4878 3.97524V6.20152H14.7139V9.72665L13.9401 9.55057V3.88002H12.3925V1.63901L5.51657 0.0208772L3.8803 0.0108643V3.88002H2.4271L0 12.4521L2.24404 23.2258H1.55881V23.9996H22.4523V23.2258H21.6784V11.3094ZM3.10647 15.4875V14.7137H3.8803V15.4875H3.10647ZM4.65414 14.7137H5.42797V15.4875H4.65414V14.7137ZM6.2018 14.7137H6.97563V15.4875H6.2018V14.7137ZM7.74946 14.7137H8.52329V15.4875H7.74946V14.7137ZM9.29713 14.7137H10.071V15.4875H9.29713V14.7137ZM10.8448 14.7137H11.6186V15.4875H10.8448V14.7137ZM3.10647 11.6183V10.8445H3.8803V11.6183H3.10647ZM4.65414 10.8445H5.42797V11.6183H4.65414V10.8445ZM6.2018 10.8445H6.97563V11.6183H6.2018V10.8445ZM7.74946 10.8445H8.52329V11.6183H7.74946V10.8445ZM9.29713 10.8445H10.071V11.6183H9.29713V10.8445ZM10.8448 10.8445H11.6186V11.6183H10.8448V10.8445ZM20.9046 11.927V23.2258H12.3925V10.0707H12.7361L20.9046 11.927ZM16.2616 4.55864L18.6373 3.88002H19.3569V6.20152H16.2616V4.55864ZM15.4878 6.97535H20.1308V10.9579L15.4878 9.90272V6.97535ZM4.65414 0.784696H5.38319L11.6186 2.25188V3.88002H4.65414V0.784696ZM5.42797 23.2258V18.9697C5.42797 18.7561 5.6014 18.5828 5.81488 18.5828H8.91021C9.12388 18.5828 9.29713 18.7561 9.29713 18.9697V23.2258H5.42797ZM8.91021 17.809H5.81488C5.175 17.809 4.65414 18.3297 4.65414 18.9697V23.2258H3.03412L0.796314 12.4804L3.0122 4.65385H13.1663V9.37487L12.8653 9.30648L11.6186 9.29684V10.0707H2.33264V12.3922H11.6186V13.9398H2.33264V16.2613H11.6186V23.2258H10.071V18.9697C10.071 18.3297 9.55028 17.809 8.91021 17.809Z" fill="black"/>
<path d="M12.3924 6.20197H3.88031V8.52347H12.3924V6.20197ZM7.74946 6.9758H8.52329V7.74963H7.74946V6.9758ZM6.97563 7.74963H6.2018V6.9758H6.97563V7.74963ZM9.29712 6.9758H10.071V7.74963H9.29712V6.9758ZM4.65414 6.9758H5.42797V7.74963H4.65414V6.9758ZM11.6186 7.74963H10.8448V6.9758H11.6186V7.74963Z" fill="black"/>
<path d="M20.1307 18.5832H13.1663V20.9047H20.1307V18.5832ZM17.8092 19.357V20.1309H17.0354V19.357H17.8092ZM16.2616 19.357V20.1309H15.4878V19.357H16.2616ZM13.9401 19.357H14.7139V20.1309H13.9401V19.357ZM19.3569 20.1309H18.5831V19.357H19.3569V20.1309Z" fill="black"/>
<path d="M20.1307 15.4879H13.1663V17.8094H20.1307V15.4879ZM17.8092 16.2617V17.0356H17.0354V16.2617H17.8092ZM16.2616 16.2617V17.0356H15.4878V16.2617H16.2616ZM13.9401 16.2617H14.7139V17.0356H13.9401V16.2617ZM19.3569 17.0356H18.5831V16.2617H19.3569V17.0356Z" fill="black"/>
<path d="M23.2261 23.2263H23.9999V24.0001H23.2261V23.2263Z" fill="black"/>
<path d="M0.0111084 23.2263H0.78494V24.0001H0.0111084V23.2263Z" fill="black"/>
</g>
<defs>
<clipPath id="clip0_80:78">
<rect width="24" height="24" fill="white"/>
</clipPath>
</defs>
</svg>
