<svg width="24" height="24" viewBox="0 0 24 24" fill="none" xmlns="http://www.w3.org/2000/svg">
<path d="M16.183 10.4423C16.0099 10.0551 15.8313 9.66253 15.8313 9.22694C15.8313 8.86126 15.9991 8.5601 16.0369 8.21055C16.0532 8.07073 16.0478 7.97931 15.8963 7.94167C15.7448 7.9094 15.6041 7.91478 15.458 7.96318C15.1712 8.0546 14.8412 8.23744 14.6464 8.48482C14.6356 8.67304 14.4245 8.8505 14.2298 8.69992C13.5426 8.17291 12.52 8.15678 11.6921 8.18904C10.913 8.22131 10.0797 8.31273 9.33843 8.56548C9.29515 8.58162 9.24645 8.58699 9.20858 8.58162C9.14365 8.58162 9.07331 8.55473 9.01379 8.50095C8.80818 8.30197 8.59716 8.10838 8.36991 7.93629C8.13184 7.75883 7.82342 7.51683 7.51501 7.5007C6.90901 7.46843 7.29317 8.56548 7.43385 9.05485C7.54748 9.13014 7.60699 9.28072 7.51501 9.42591C7.25529 9.81311 6.78456 10.1143 6.62224 10.566C6.46532 11.007 6.48156 11.4641 6.58977 11.9158C6.68176 12.3245 6.84408 12.6902 7.10379 13.0236C7.30399 13.2817 7.63946 13.7012 8.01821 13.6313C8.09937 13.6151 8.16971 13.6367 8.22382 13.6743C8.9164 13.7765 9.48453 14.3196 9.64685 14.9972C9.83081 15.7824 9.38172 16.4653 8.62963 16.7235C7.83966 16.9977 7.1092 16.745 6.73586 16.0028C6.61142 15.7608 6.54108 15.4758 6.38416 15.25C6.28136 15.1048 6.1515 15.0456 6 15.0349C6.11904 15.6157 6.05411 16.2664 6.50861 16.7073C7.02263 17.2021 7.72603 17.0838 8.37532 17.1375C8.86229 17.1806 9.2194 17.4441 9.122 17.9711C9.06249 18.3045 8.92722 18.6325 8.81359 18.9552C8.69997 19.2832 8.67832 19.5629 8.67291 19.8963C8.75407 19.9071 8.84065 19.9232 8.92181 19.9339C10.5126 20.1329 12.125 19.8748 13.5967 19.2617C13.5642 19.1811 13.5642 19.0843 13.6346 18.9928C13.732 18.8638 13.7266 18.6433 13.7211 18.4927C13.7103 18.2346 13.6724 17.9711 13.6075 17.7183C13.5047 17.2989 13.3857 16.8364 13.1422 16.4761C12.8554 16.0459 12.4442 15.6372 12.3739 15.1048C12.3143 14.653 12.5578 13.9486 13.0827 13.9002C13.1476 13.8948 13.2071 13.9109 13.2504 13.9378C13.759 13.8733 14.2785 13.7872 14.76 13.6098C15.2199 13.4377 15.5933 13.2011 15.9341 12.8515C16.2263 12.5504 16.4698 12.1739 16.4969 11.7491C16.5239 11.2758 16.3724 10.8564 16.183 10.4423Z" fill="#FFB44E"/>
<path d="M19.3575 9.83625C18.7839 7.24302 16.6983 5.15785 14.2267 4.37988C13.0587 4.01471 11.8125 3.88769 10.608 4.10997C9.53913 4.30579 8.56929 4.79268 7.66723 5.396C6.7026 6.04695 5.7849 6.82492 5.09662 7.78283C4.6117 8.46025 4.22585 9.28056 4.25192 10.122C4.25192 10.1273 4.2467 10.1379 4.2467 10.1432C4.23106 10.4396 4.19978 10.7306 4.1737 11.027C4.14763 11.0376 4.12678 11.0429 4.10071 11.0482C4.06942 11.3975 4.01728 11.7521 4.00685 12.1066C3.99642 12.4771 3.99642 12.8476 4.01728 13.2233C4.05378 13.9537 4.14763 14.684 4.34056 15.3879C4.63256 16.4358 5.12269 17.4466 5.92047 18.1928C6.64524 18.8702 7.54209 19.283 8.48586 19.5V19.463C8.48586 19.4524 8.48586 19.4365 8.48586 19.4259C8.49108 19.1666 8.51193 18.9231 8.60058 18.6585C8.70486 18.3304 8.85086 17.997 8.91343 17.6583C8.94471 17.4783 8.94471 17.4519 8.76743 17.4254C8.5015 17.3884 8.22515 17.4095 7.95401 17.3937C7.63594 17.3725 7.30745 17.3249 7.02067 17.182C6.72867 17.0338 6.53574 16.8327 6.3376 16.5734C5.92047 16.023 6.07689 15.3032 5.83704 14.6893C5.79011 14.5676 5.86311 14.3823 5.99868 14.3506C6.52532 14.2289 7.02067 14.3294 7.28659 14.8481C7.48995 15.2344 7.59945 15.843 8.04787 16.023C8.62143 16.2505 9.49742 15.7901 9.45571 15.1127C9.41921 14.5146 8.96557 14.0436 8.38158 13.9854C8.35551 13.9854 8.33465 13.9801 8.31379 13.9695C7.8758 13.9801 7.48995 13.6679 7.21359 13.3345C6.90074 12.9587 6.66089 12.5353 6.53575 12.059C6.38975 11.498 6.34282 10.9318 6.49925 10.3708C6.64003 9.868 7.03631 9.55576 7.33873 9.16942C7.26574 8.68782 7.03631 8.23268 7.05195 7.7352C7.06238 7.35415 7.32831 6.91489 7.73502 6.87785C8.45458 6.81434 9.11157 7.41766 9.61213 7.91514C10.3891 7.67169 11.2233 7.57114 12.0315 7.54997C12.8084 7.5288 13.7157 7.57114 14.4144 7.97335C14.6647 7.68228 15.0453 7.47059 15.3947 7.35415C15.7597 7.23243 16.2655 7.24302 16.5158 7.58172C16.7556 7.89926 16.6044 8.33852 16.5001 8.67723C16.3489 9.17471 16.521 9.61397 16.7243 10.0638C16.9381 10.5454 17.1258 11.0746 17.0737 11.6145C17.0215 12.1066 16.813 12.5353 16.4949 12.9058C16.1351 13.3239 15.7076 13.6573 15.1913 13.8531C14.6074 14.0754 14.0025 14.1971 13.3872 14.2712C13.3403 14.2765 13.2986 14.2712 13.2621 14.2606C13.2099 14.3241 13.1369 14.467 13.1213 14.5199C13.0848 14.6258 13.0796 14.7369 13.1004 14.8481C13.1474 15.0915 13.3038 15.3138 13.4446 15.5096C13.6949 15.8589 13.9139 16.1923 14.0599 16.6051C14.2163 17.0497 14.3414 17.526 14.3831 17.997C14.404 18.2298 14.4092 18.4733 14.3519 18.7009C15.1705 18.2881 15.9265 17.7535 16.594 17.1238C18.5389 15.2873 19.9676 12.5935 19.3575 9.83625Z" fill="#DEECF1"/>
<path d="M22.6777 7.27179C21.5931 4.955 19.5409 3.13467 17.3716 1.98695C15.1972 0.82856 12.6765 0.220004 10.2373 0.625708C6.21942 1.28765 2.32891 4.37848 1.17805 8.52093C1.17805 8.56898 1.16786 8.61168 1.1424 8.65973C1.12203 8.73446 1.10166 8.81453 1.08638 8.88927C1.06092 8.94265 1.03546 8.99603 1.01509 9.05475C1.01 9.1028 0.999815 9.15618 0.994722 9.19888C0.948892 9.41775 0.892876 9.63662 0.85723 9.85549C0.785938 10.2665 0.801215 10.6936 0.663723 11.0833C0.653538 11.1954 0.638261 11.3075 0.622984 11.4196C0.622984 11.4356 0.622984 11.4463 0.622984 11.457C0.597523 11.6918 0.577153 11.9267 0.556784 12.1616C0.516046 12.6527 0.495677 13.1438 0.500769 13.6349C0.516046 14.6012 0.622984 15.5674 0.852138 16.5016C1.29517 18.2792 2.15067 19.9607 3.50013 21.1618C4.42693 21.9893 5.51159 22.5338 6.67773 22.8861C7.95081 23.2758 9.27481 23.4946 10.6039 23.5C13.2264 23.5053 15.8592 22.758 18.0183 21.1672C22.0107 18.2205 25.0202 12.263 22.6777 7.27179ZM11.0215 20.4145C8.66882 20.6387 6.08702 19.9234 4.74775 17.74C4.16723 16.7952 3.83113 15.7062 3.67327 14.6012C3.5918 14.0246 3.54597 13.4428 3.54597 12.8609C3.54597 12.5566 3.55106 12.2523 3.56634 11.9481C3.5867 11.6118 3.64781 11.2808 3.658 10.9498C3.66309 10.8217 3.73947 10.731 3.83623 10.6936C3.658 9.56188 4.09593 8.45687 4.74266 7.54404C5.5065 6.46038 6.53515 5.5689 7.6249 4.86425C8.52624 4.28239 9.48359 3.8233 10.5377 3.64714C11.7089 3.44963 12.9362 3.55105 14.0718 3.91939C16.4448 4.69343 18.5581 6.56714 19.3474 9.09212C21.0584 14.5585 16.0068 19.9394 11.0215 20.4145Z" fill="#FFB44E"/>
<path d="M9.83454 0.168283C9.38446 0.252617 8.93961 0.365064 8.5 0.5H15C13.32 -0.000387127 11.5511 -0.15219 9.83454 0.168283Z" fill="black"/>
<path d="M22.6628 6.19106C21.3802 4.04228 19.3088 2.38284 17.1305 1.31909C16.4485 0.989324 15.7411 0.71275 15.0133 0.5H8.6972C5.02769 1.62226 1.7297 4.60607 0.686354 8.46216C0.5184 8.75469 0.492953 9.15892 0.4217 9.48336C0.370806 9.71207 0.335179 9.94609 0.304642 10.1801C0.299553 10.2014 0.299553 10.228 0.294463 10.2493C0.289374 10.2652 0.284284 10.2759 0.284284 10.2918C0.243568 10.5152 0.207942 10.7386 0.177405 10.962C0.177405 10.9673 0.172315 10.9673 0.172315 10.9726C0.146868 11.0364 0.141778 11.0949 0.151957 11.1428C0.101063 11.5736 0.0654362 12.0044 0.0348993 12.4353C-0.00581658 13.0416 -0.010906 13.6533 0.0196309 14.2596C0.0857942 15.4457 0.304642 16.6264 0.696533 17.7434C1.47522 19.9666 3.01225 21.8122 5.07858 22.8121C6.25425 23.3759 7.56225 23.7004 8.83971 23.8759C10.1375 24.0514 11.4608 24.0408 12.7586 23.844C15.3492 23.4504 17.7718 22.2643 19.6854 20.3974C21.538 18.5944 22.9936 16.2701 23.6603 13.7064C24.3321 11.1588 24.0115 8.4462 22.6628 6.19106ZM18.0161 21.1527C15.8581 22.7377 13.2268 23.4823 10.6058 23.477C9.2825 23.4717 7.95923 23.2536 6.68686 22.8653C5.52137 22.509 4.4373 21.9718 3.51102 21.1474C2.1623 19.9506 1.30727 18.2752 0.864486 16.5041C0.630369 15.5733 0.52858 14.6106 0.513311 13.6479C0.503132 13.1586 0.52349 12.6693 0.569295 12.18C0.589653 11.9459 0.610011 11.7119 0.635459 11.4779C0.635459 11.4673 0.635459 11.4513 0.635459 11.4407C0.650727 11.329 0.665996 11.2173 0.676175 11.1056C0.813591 10.7173 0.798322 10.2865 0.869575 9.88227C0.910291 9.6642 0.961186 9.44613 1.00699 9.22806C1.01717 9.18551 1.02226 9.13764 1.02735 9.08445C1.04771 9.03127 1.07315 8.97276 1.0986 8.91957C1.11896 8.84511 1.13423 8.76533 1.15459 8.69087C1.18003 8.643 1.1953 8.59513 1.19021 8.55258C2.34044 4.41992 6.2288 1.34036 10.2444 0.680837C12.6823 0.276613 15.1965 0.882949 17.3748 2.03712C19.5429 3.18065 21.5889 4.99966 22.678 7.30267C25.0192 12.2757 22.0113 18.2114 18.0161 21.1527Z" fill="black"/>
<path d="M19.6506 9.07551C18.8387 6.5362 16.6839 4.65185 14.2584 3.87342C13.0977 3.50299 11.8486 3.40099 10.6462 3.59962C9.56884 3.77679 8.59033 4.23311 7.66908 4.82365C6.55524 5.53229 5.50907 6.4342 4.72314 7.51864C4.06212 8.43666 3.61451 9.54794 3.79668 10.6861C3.70299 10.7236 3.61971 10.8095 3.61451 10.9438C3.6041 11.2766 3.53643 11.6148 3.52082 11.9477C3.5052 12.2537 3.5 12.5597 3.5 12.8657C3.5052 13.4509 3.54684 14.036 3.63012 14.6158C3.79147 15.7271 4.13499 16.8223 4.72834 17.7725C6.09722 19.9629 8.73607 20.6822 11.1407 20.4621C16.2414 19.979 21.4047 14.5675 19.6506 9.07551ZM13.7952 18.9536C13.7275 19.0448 13.7275 19.1415 13.7587 19.222C12.343 19.834 10.792 20.0917 9.26176 19.8931C9.18369 19.8823 9.10041 19.8716 9.02234 19.8555C9.02754 19.5226 9.04836 19.2435 9.15766 18.916C9.26176 18.5939 9.39188 18.2664 9.45434 17.9336C9.54803 17.4075 9.1993 17.1444 8.73607 17.1014C8.10628 17.0478 7.43486 17.1605 6.9404 16.672C6.49799 16.2371 6.56565 15.5822 6.45114 15.0024C6.59688 15.0077 6.7218 15.0668 6.82069 15.2171C6.97163 15.4426 7.0445 15.7217 7.159 15.9687C7.51814 16.7149 8.22079 16.9619 8.9807 16.6881C9.69897 16.4304 10.1362 15.7486 9.95921 14.9648C9.80306 14.2883 9.25655 13.7461 8.59033 13.6441C8.53829 13.6065 8.47583 13.5851 8.39255 13.6012C8.02821 13.671 7.71072 13.2522 7.51293 12.9945C7.2631 12.6617 7.11216 12.2966 7.01847 11.8886C6.91958 11.4377 6.89876 10.9813 7.0497 10.5411C7.20585 10.0902 7.65867 9.79489 7.9085 9.40299C8.00219 9.25804 7.93973 9.10772 7.83043 9.03256C7.6951 8.53866 7.32556 7.44885 7.9085 7.48106C8.21038 7.49717 8.50706 7.73875 8.73086 7.91591C8.94947 8.08771 9.15766 8.28097 9.35024 8.47961C9.40749 8.53866 9.46995 8.56013 9.53761 8.56013C9.57925 8.5655 9.62089 8.56013 9.66253 8.54403C10.3756 8.29171 11.1771 8.19508 11.9266 8.16823C12.723 8.13602 13.7067 8.15213 14.3677 8.67824C14.5551 8.82856 14.7581 8.6514 14.7685 8.4635C14.9559 8.21655 15.2681 8.03402 15.5492 7.94276C15.6949 7.89444 15.8251 7.88907 15.9708 7.92128C16.1217 7.95349 16.1217 8.05013 16.1061 8.18971C16.0697 8.53866 15.9083 8.8393 15.9083 9.20436C15.9083 9.63384 16.0749 10.0311 16.2467 10.4176C16.4288 10.831 16.5746 11.2551 16.5433 11.7115C16.5173 12.1409 16.2831 12.5114 16.002 12.812C15.6741 13.161 15.315 13.4025 14.8726 13.569C14.4093 13.7461 13.9097 13.8374 13.4204 13.8964C13.3788 13.8696 13.3267 13.8535 13.2591 13.8589C12.7542 13.9072 12.52 14.6105 12.5772 15.0614C12.6449 15.5929 13.0405 16.0009 13.3163 16.4304C13.5505 16.7901 13.6651 17.2518 13.7639 17.6705C13.8212 17.9228 13.8576 18.1805 13.8732 18.4436C13.8889 18.6046 13.8941 18.8247 13.7952 18.9536ZM16.5954 17.343C15.9292 17.9819 15.1693 18.5241 14.3573 18.9428C14.4146 18.712 14.4093 18.465 14.3885 18.2288C14.3469 17.751 14.222 17.2679 14.0658 16.8169C13.9201 16.3982 13.7015 16.0653 13.4517 15.7056C13.3111 15.5016 13.155 15.2815 13.1081 15.0346C13.0873 14.9218 13.0925 14.8091 13.129 14.7017C13.1446 14.648 13.2174 14.5031 13.2695 14.4387C13.3059 14.4494 13.3476 14.4601 13.3944 14.4494C14.0086 14.3742 14.6123 14.2508 15.1953 14.0253C15.7106 13.8267 16.1321 13.4884 16.4965 13.0643C16.814 12.6885 17.0274 12.2537 17.0742 11.7544C17.1263 11.2068 16.9389 10.67 16.7255 10.1814C16.5277 9.71973 16.3508 9.27952 16.5017 8.77488C16.6058 8.43129 16.7567 7.9857 16.5173 7.66359C16.2675 7.32001 15.7626 7.30927 15.3983 7.43275C15.0495 7.55085 14.6696 7.76559 14.4198 8.06086C13.7223 7.64749 12.8167 7.60991 12.0411 7.63138C11.2344 7.65285 10.4016 7.74949 9.6261 8.00181C9.12643 7.49717 8.47062 6.88516 7.75236 6.94958C7.34638 6.98716 7.08093 7.43811 7.07052 7.81928C7.05491 8.31855 7.28392 8.78561 7.35679 9.27415C7.05491 9.66605 6.65934 9.98816 6.51881 10.4928C6.36266 11.0619 6.40951 11.6363 6.55524 12.2054C6.68016 12.6885 6.91958 13.118 7.23187 13.4992C7.50773 13.8374 7.89289 14.1541 8.33009 14.1434C8.35091 14.1488 8.37173 14.1541 8.39776 14.1595C8.9807 14.2186 9.43352 14.691 9.46995 15.303C9.51159 15.9848 8.63197 16.4519 8.06465 16.2264C7.61703 16.0438 7.50252 15.4318 7.30474 15.0346C7.03929 14.5085 6.54483 14.4065 6.01914 14.5299C5.88382 14.5621 5.81095 14.7447 5.85779 14.8735C6.09722 15.4963 5.93587 16.2264 6.35746 16.7847C6.55524 17.0478 6.74782 17.2518 7.03929 17.4021C7.32556 17.547 7.65346 17.5953 7.97096 17.6168C8.24161 17.6329 8.51226 17.6115 8.78291 17.649C8.95988 17.6759 8.95988 17.7027 8.92865 17.8852C8.86619 18.2288 8.72046 18.5671 8.61636 18.8999C8.53308 19.1683 8.50706 19.4153 8.50185 19.6783C8.50185 19.6891 8.50185 19.7052 8.50185 19.7159V19.7535C7.55457 19.5334 6.66454 19.1146 5.94107 18.4275C5.14473 17.6705 4.65027 16.6451 4.364 15.5822C4.17142 14.8681 4.07774 14.1273 4.0413 13.3864C4.02048 13.0106 4.02048 12.6348 4.03089 12.2537C4.0413 11.894 4.09335 11.5397 4.12458 11.18C4.15061 11.1746 4.17663 11.1692 4.19745 11.1585C4.22347 10.8579 4.2547 10.5626 4.27032 10.262C4.27032 10.2566 4.27032 10.2458 4.27552 10.2405C4.2495 9.38689 4.63466 8.56013 5.11871 7.8676C5.80054 6.89589 6.71659 6.10672 7.68469 5.44639C8.57992 4.83438 9.55323 4.34048 10.6202 4.14184C11.8277 3.91637 13.0665 4.04521 14.2324 4.41564C16.6995 5.20481 18.7814 7.32001 19.3539 9.95058C19.9577 12.7529 18.5316 15.4855 16.5954 17.343Z" fill="#010101"/>
</svg>
