<svg width="24" height="24" viewBox="0 0 24 24" fill="none" xmlns="http://www.w3.org/2000/svg">
<g clip-path="url(#clip0_80:103)">
<path d="M23.6484 12C23.6484 18.4332 18.4332 23.6484 12 23.6484C5.56677 23.6484 0.351562 18.4332 0.351562 12C0.351562 5.56677 5.56677 0.351562 12 0.351562C18.4332 0.351562 23.6484 5.56677 23.6484 12Z" fill="#C3DDFF"/>
<path d="M0.351562 12C0.351562 17.3256 3.92706 21.8134 8.80756 23.2018C11.7654 22.1385 12.3076 19.7684 11.8121 18.2234C11.413 16.9788 9.90985 16.2742 8.02332 16.8849C5.71051 17.6334 4.06494 17.2399 3.16974 16.3447C2.52026 15.6953 2.47705 14.6895 2.93903 13.8587C3.2948 13.2188 3.94153 12.7949 4.65656 12.6374C6.31329 12.2726 11.1627 11.0528 11.2015 9.26807C11.2333 7.80798 10.1448 6.91333 7.49103 5.71051C5.72736 4.91107 5.23993 3.24518 5.90057 2.07605C2.57153 4.12646 0.351562 7.80341 0.351562 12Z" fill="#FFB44E"/>
<path d="M13.8788 21.7696C7.44562 21.7696 2.23041 16.5544 2.23041 10.1212C2.23041 7.38336 3.17743 4.86804 4.75836 2.87952C2.0744 5.01361 0.351562 8.30457 0.351562 12C0.351562 18.4332 5.56677 23.6484 12 23.6484C15.6954 23.6484 18.9866 21.9256 21.1205 19.2416C19.132 20.8228 16.6166 21.7696 13.8788 21.7696Z" fill="#A4CCFF"/>
<path d="M4.57379 17.1281C3.99335 16.9702 3.5224 16.6974 3.16974 16.3447C2.54938 15.7244 2.48767 14.7806 2.88538 13.9731C2.46277 12.767 2.23041 11.4716 2.23041 10.1213C2.23041 7.38336 3.17743 4.86823 4.75836 2.8797C2.0744 5.01361 0.351562 8.30457 0.351562 12C0.351562 17.3256 3.92706 21.8134 8.80756 23.2018C9.97083 22.7836 10.756 22.1622 11.2559 21.4695C8.54517 20.8453 6.19537 19.2779 4.57379 17.1281Z" fill="#FFB44E"/>
<path d="M12 0.351562C10.9375 0.351562 9.90931 0.496582 8.93116 0.763C7.50917 3.21918 9.52626 4.5672 11.5772 4.71588C14.1841 4.90503 15.9419 2.82092 17.2919 4.58203C18.3316 5.93829 14.6796 7.38812 15.6682 9.36969L14.6613 14.8226C14.5205 15.4147 14.5437 15.9899 14.8652 16.5168C15.9456 18.2878 19.2647 15.9857 18.5444 18.7202C18.1789 20.1077 18.1058 21.117 18.2073 21.8547C21.4757 19.7919 23.6484 16.1506 23.6484 12C23.6484 5.56677 18.4332 0.351562 12 0.351562Z" fill="#FFB44E"/>
<path d="M18.7635 15.006H5.23645C4.40625 15.006 3.73334 14.3331 3.73334 13.5029V10.4969C3.73334 9.66687 4.40625 8.99396 5.23645 8.99396H18.7635C19.5938 8.99396 20.2667 9.66687 20.2667 10.4969V13.5029C20.2667 14.3331 19.5938 15.006 18.7635 15.006Z" fill="white"/>
<path d="M18.1721 20.9498C18.158 21.2891 18.1708 21.5903 18.2073 21.8549C19.3147 21.1558 20.2921 20.2723 21.106 19.2526C20.2227 19.9526 19.2358 20.5269 18.1721 20.9498Z" fill="#FFB44E"/>
<path d="M6.36365 13.8788C5.53363 13.8788 4.86053 13.2059 4.86053 12.3757V9.04706C4.21344 9.2146 3.73334 9.79742 3.73334 10.4969V13.5029C3.73334 14.3331 4.40625 15.006 5.23645 15.006H18.7635C19.4632 15.006 20.0458 14.5259 20.2136 13.8788H6.36365Z" fill="#EDF4FF"/>
<path d="M9.12927 10.5481C8.95 10.4734 8.74419 10.5582 8.66949 10.7375L8.05443 12.2131L7.43975 10.7375C7.38518 10.6066 7.25701 10.5212 7.1151 10.5212C6.9732 10.5212 6.8452 10.6066 6.79064 10.7375L6.17577 12.2131L5.5609 10.7375C5.48619 10.5582 5.28038 10.4734 5.10112 10.5481C4.92186 10.6229 4.83708 10.8287 4.91179 11.0079L5.85112 13.2625C5.90587 13.3936 6.03386 13.4789 6.17577 13.4789C6.31768 13.4789 6.44567 13.3936 6.50023 13.2625L7.1151 11.7868L7.72997 13.2625C7.78454 13.3934 7.91253 13.4789 8.05443 13.4789C8.19634 13.4789 8.32452 13.3934 8.37908 13.2625L9.31841 11.0079C9.39312 10.8287 9.30834 10.6229 9.12927 10.5481Z" fill="black"/>
<path d="M14.014 10.5481C13.8347 10.4734 13.6289 10.5582 13.5542 10.7375L12.9393 12.2131L12.3245 10.7375C12.2699 10.6066 12.1419 10.5212 12 10.5212C11.8581 10.5212 11.7301 10.6066 11.6754 10.7375L11.0605 12.2131L10.4456 10.7375C10.3709 10.5582 10.1651 10.4734 9.98585 10.5481C9.80677 10.6229 9.72199 10.8287 9.79652 11.0079L10.736 13.2625C10.7906 13.3934 10.9186 13.4789 11.0605 13.4789C11.2024 13.4789 11.3306 13.3934 11.3851 13.2625L12 11.7868L12.6149 13.2625C12.6694 13.3934 12.7974 13.4787 12.9393 13.4787C13.0814 13.4787 13.2094 13.3934 13.264 13.2625L14.2033 11.0079C14.278 10.8287 14.1932 10.6229 14.014 10.5481Z" fill="black"/>
<path d="M18.1487 13.2625L19.0882 11.0079C19.1629 10.8287 19.0781 10.6229 18.8989 10.5481C18.7196 10.4734 18.5138 10.5582 18.4391 10.7375L17.8242 12.2131L17.2094 10.7375C17.1548 10.6064 17.0268 10.521 16.8849 10.521C16.7428 10.521 16.6148 10.6066 16.5602 10.7375L15.9454 12.2131L15.3305 10.7375C15.2558 10.5582 15.05 10.4734 14.8707 10.5481C14.6917 10.6229 14.6069 10.8287 14.6814 11.0079L15.6209 13.2625C15.6755 13.3934 15.8035 13.4787 15.9454 13.4787C16.0873 13.4787 16.2155 13.3934 16.27 13.2625L16.8849 11.7868L17.4998 13.2625C17.5543 13.3934 17.6823 13.4787 17.8242 13.4787C17.9661 13.4787 18.0941 13.3934 18.1487 13.2625Z" fill="black"/>
<path d="M20.4853 3.51471C18.2188 1.24823 15.2053 0 12 0C8.79474 0 5.78119 1.24823 3.51471 3.51471C1.24823 5.78119 0 8.79474 0 12C0 15.2053 1.24823 18.2188 3.51471 20.4853C5.78119 22.7518 8.79474 24 12 24C15.2053 24 18.2188 22.7518 20.4853 20.4853C22.7518 18.2188 24 15.2053 24 12C24 8.79474 22.7518 5.78119 20.4853 3.51471ZM8.35345 3.39148C8.84619 4.33484 10.0719 4.98724 11.5519 5.09381C12.6817 5.17529 13.6357 4.86658 14.4772 4.5943C15.7518 4.18176 16.392 4.01935 17.0136 4.82483C17.2447 5.12457 17.1843 5.35034 16.3563 6.17834C15.7474 6.78717 14.9409 7.5943 15.1923 8.6424H11.5488C11.4412 7.21838 10.0604 6.37061 7.62598 5.35803C6.28876 4.80176 6.03021 3.91077 5.98114 3.55353C5.90332 2.98792 6.13074 2.4494 6.6048 2.07587C6.61176 2.07056 6.61798 2.0647 6.62439 2.05884C7.16199 1.76715 7.72156 1.52087 8.29871 1.32147C7.9541 2.24982 8.11945 2.94342 8.35345 3.39148ZM9.89355 23.1011C10.8563 22.6018 11.5631 21.9109 11.9643 21.0676C12.3929 20.1665 12.4596 19.0908 12.1469 18.1161C11.9458 17.4893 11.497 16.9708 10.8827 16.656C10.0607 16.2345 9.00677 16.197 7.9151 16.5504C5.97418 17.1786 4.33521 17.0129 3.4184 16.0961C3.07196 15.7496 2.9176 15.2736 2.98389 14.7554C3.03058 14.3897 3.18036 14.0433 3.40082 13.7661C3.52899 14.6646 4.30316 15.3576 5.23645 15.3576H14.2452C14.1852 15.9011 14.2936 16.3909 14.5701 16.8177C15.1622 17.7316 16.2446 17.7034 17.1145 17.681C17.5759 17.6691 18.0989 17.6556 18.234 17.829C18.3226 17.9425 18.3122 18.226 18.2058 18.6063C17.8621 19.8349 17.7435 20.8636 17.8521 21.6674C16.1052 22.7292 14.0964 23.2969 12 23.2969C11.2853 23.2969 10.5811 23.2302 9.89355 23.1011ZM19.9882 19.9882C19.5295 20.4468 19.038 20.861 18.5195 21.2289C18.4926 20.5726 18.614 19.7573 18.8829 18.7958C19.0624 18.1542 19.0325 17.7098 18.7886 17.3969C18.4354 16.9437 17.785 16.9603 17.0964 16.9781C16.3301 16.998 15.538 17.0184 15.1602 16.4354C14.9572 16.1219 14.8901 15.7747 14.9537 15.3576H16.8847C17.079 15.3576 17.2363 15.2001 17.2363 15.006C17.2363 14.812 17.079 14.6545 16.8847 14.6545H5.23645C4.60144 14.6545 4.0849 14.1379 4.0849 13.5031V10.4971C4.0849 9.86206 4.60144 9.34552 5.23645 9.34552H5.61237C5.80646 9.34552 5.96393 9.18823 5.96393 8.99396C5.96393 8.79987 5.80646 8.6424 5.61237 8.6424H5.23645C4.21381 8.6424 3.38177 9.47443 3.38177 10.4971V12.8304C2.79602 13.235 2.38147 13.9233 2.28644 14.6662C2.19196 15.405 2.41736 16.0895 2.92108 16.5932C4.03143 17.7036 5.93042 17.9317 8.13153 17.2192C9.04413 16.9239 9.90729 16.946 10.5619 17.2817C11.0151 17.514 11.3317 17.8768 11.4774 18.3309C11.736 19.1369 11.6819 20.0244 11.3295 20.7654C10.8873 21.6951 10.0195 22.3872 8.75189 22.825C6.97998 22.2958 5.3562 21.3325 4.01184 19.988C1.87811 17.8544 0.703125 15.0176 0.703125 12C0.703125 8.98242 1.87811 6.14557 4.01184 4.01184C4.41833 3.60535 4.85046 3.23401 5.30438 2.89856C5.25677 3.14044 5.24927 3.39258 5.28442 3.64911C5.42303 4.65784 6.17816 5.51733 7.3559 6.00714C9.78223 7.01642 10.7316 7.71735 10.8419 8.6424H7.1153C6.9212 8.6424 6.76373 8.79968 6.76373 8.99396C6.76373 9.18805 6.9212 9.34552 7.1153 9.34552H18.7635C19.3986 9.34552 19.9151 9.86206 19.9151 10.4969V13.5029C19.9151 14.1379 19.3986 14.6545 18.7635 14.6545H18.3876C18.1935 14.6545 18.0361 14.8118 18.0361 15.006C18.0361 15.2001 18.1935 15.3576 18.3876 15.3576H18.7635C19.7862 15.3576 20.6182 14.5256 20.6182 13.5029V10.4969C20.6182 9.47424 19.7862 8.6424 18.7635 8.6424H15.9285C15.657 7.94806 16.1234 7.40533 16.8534 6.67548C17.4761 6.05273 18.2512 5.27783 17.5703 4.39526C16.6187 3.16223 15.4733 3.53284 14.2608 3.92523C13.4802 4.17792 12.5958 4.46393 11.6025 4.39252C10.3636 4.30316 9.35742 3.79486 8.97675 3.06592C8.68506 2.50763 8.76105 1.82996 9.19995 1.05121C10.1041 0.821777 11.0429 0.703125 12 0.703125C15.0176 0.703125 17.8544 1.87811 19.9882 4.01184C22.1219 6.14557 23.2969 8.98242 23.2969 12C23.2969 15.0176 22.1219 17.8544 19.9882 19.9882Z" fill="black"/>
</g>
<defs>
<clipPath id="clip0_80:103">
<rect width="24" height="24" fill="white"/>
</clipPath>
</defs>
</svg>
