<svg width="27" height="27" viewBox="0 0 27 27" fill="none" xmlns="http://www.w3.org/2000/svg">
<g clip-path="url(#clip0_887_4)">
<path d="M3.60685 26.8973C3.60685 26.8973 2.92843 20.95 8.77241 20.2865H11.2731V19.1345C11.2731 19.1345 13.0322 19.89 14.8134 19.2188L14.8696 20.2865H17.7917C17.7917 20.2865 22.8805 20.7945 22.5727 26.8973H3.60685Z" fill="#FFB44E"/>
<path d="M22.5241 27.0018H3.78769H3.42432L3.51502 25.4523C3.69212 22.4268 6.07586 20.1179 8.80373 20.1179H10.8798V20.4269H8.96933C6.34023 20.4269 4.04279 22.6494 3.8721 25.5616L3.8091 26.6365H22.4746L22.4397 25.5616C22.269 22.6494 19.9716 20.4269 17.3425 20.4269H14.7853V20.1179H17.4914C20.2193 20.1179 22.603 22.4268 22.7801 25.4523L22.8708 27.0018H22.5241Z" fill="#3B434F"/>
<path d="M11.5542 19.0045V20.7374C11.5542 21.6367 12.2838 22.3657 13.1838 22.3657C14.0839 22.3657 14.8135 21.6367 14.8135 20.7374V19.0402C14.9081 19.0114 15.0018 18.9802 15.0945 18.9464V20.7492C15.0945 21.8126 14.2328 22.6747 13.1698 22.6747C12.1068 22.6747 11.2451 21.8126 11.2451 20.7492V18.893C11.3469 18.9333 11.45 18.9703 11.5542 19.0045Z" fill="#3B434F"/>
<path d="M11.231 22.3376C11.3318 22.3376 11.4136 22.4194 11.4136 22.5202V25.2738C11.4136 25.3746 11.3318 25.4564 11.231 25.4564C11.1301 25.4564 11.0483 25.3746 11.0483 25.2738V22.5202C11.0483 22.4194 11.1301 22.3376 11.231 22.3376Z" fill="#3B434F"/>
<path d="M15.0663 22.3094C15.1749 22.3094 15.263 22.3975 15.263 22.5061V24.2201C15.263 24.3287 15.1749 24.4168 15.0663 24.4168C14.9577 24.4168 14.8696 24.3287 14.8696 24.2201V22.5061C14.8696 22.3975 14.9577 22.3094 15.0663 22.3094Z" fill="#3B434F"/>
<path d="M11.2309 25.2597C11.2852 25.2597 11.3293 25.3037 11.3293 25.358V26.0605C11.3293 26.1148 11.2852 26.1588 11.2309 26.1588C11.1766 26.1588 11.1326 26.1148 11.1326 26.0605V25.358C11.1326 25.3037 11.1766 25.2597 11.2309 25.2597Z" fill="#3B434F"/>
<path d="M15.0803 24.2201C15.1346 24.2201 15.1786 24.2641 15.1786 24.3184V25.0209C15.1786 25.0752 15.1346 25.1192 15.0803 25.1192C15.026 25.1192 14.9819 25.0752 14.9819 25.0209V24.3184C14.9819 24.2641 15.026 24.2201 15.0803 24.2201Z" fill="#3B434F"/>
<path d="M10.1769 18.313L8.39728 18.7216C8.39728 18.7216 6.21798 19.2153 7.66787 20.684C9.11776 22.1528 12.8467 22.4122 12.8467 22.4122C12.8467 22.4122 11.8608 21.9452 11.4418 21.2883L11.3013 18.9281L10.1769 18.313Z" fill="#F5F3EF"/>
<path fill-rule="evenodd" clip-rule="evenodd" d="M12.9028 22.5527C12.7924 22.6925 9.68737 22.5964 7.53615 20.7264C5.97853 19.3724 8.32288 18.5909 8.32288 18.5909L10.0368 18.1976L11.526 18.9562L11.6384 21.2321C12.2653 22.2151 13.0806 22.3277 12.9028 22.5527ZM11.3574 21.3445L11.1888 18.9562L10.2897 18.4504L8.57576 18.8719C8.57576 18.8719 6.49972 19.2976 7.81712 20.5297C9.23886 21.8593 11.869 22.2161 12.1442 22.1874C12.4294 22.1577 11.9843 22.3275 11.3574 21.3445Z" fill="#3B434F"/>
<path d="M16.1889 18.3792L17.9696 18.7891C17.9696 18.7891 20.1502 19.2842 18.6994 20.7574C17.2487 22.2305 13.5176 22.4907 13.5176 22.4907C13.5176 22.4907 14.5041 22.0223 14.9233 21.3634L15.0639 18.9962L16.1889 18.3792Z" fill="#F5F3EF"/>
<path fill-rule="evenodd" clip-rule="evenodd" d="M13.4613 22.6034C13.5718 22.7436 16.6786 22.6472 18.8311 20.7716C20.3897 19.4136 18.0439 18.6298 18.0439 18.6298L16.329 18.2353L14.8389 18.9962L14.7265 21.2789C14.0992 22.2648 13.2835 22.3778 13.4613 22.6034ZM15.0076 21.3916L15.1763 18.9962L16.0759 18.4889L17.7909 18.9116C17.7909 18.9116 19.8682 19.3386 18.55 20.5744C17.1274 21.908 14.4957 22.2659 14.2204 22.2371C13.935 22.2073 14.3803 22.3775 15.0076 21.3916Z" fill="#3B434F"/>
<path d="M13.3015 1.37677C16.7968 1.37677 19.5557 4.64319 19.466 8.56788L19.3707 12.7391C19.2862 16.4366 16.5698 19.3592 13.3015 19.3592C10.0331 19.3592 7.31675 16.4366 7.23224 12.7391L7.13689 8.56788C7.04719 4.64319 9.80609 1.37677 13.3015 1.37677Z" fill="white"/>
<path fill-rule="evenodd" clip-rule="evenodd" d="M19.7468 8.43857L19.6469 12.7793C19.5584 16.6269 16.7121 19.6683 13.2874 19.6683C9.86265 19.6683 7.01637 16.6269 6.92782 12.7793L6.82791 8.43857C6.73392 4.35444 9.62479 0.955322 13.2874 0.955322C16.9499 0.955322 19.8408 4.35444 19.7468 8.43857ZM13.2733 1.40488C9.82575 1.40488 7.10456 4.64579 7.19304 8.53981L7.28708 12.6785C7.37044 16.347 10.0496 19.2468 13.2733 19.2468C16.497 19.2468 19.1762 16.347 19.2596 12.6785L19.3536 8.53981C19.4421 4.64579 16.7209 1.40488 13.2733 1.40488Z" fill="#3B434F"/>
<path fill-rule="evenodd" clip-rule="evenodd" d="M19.183 15.2362C19.0999 15.6293 18.0077 19.1939 18.2053 17.6509C18.4029 16.1079 16.3074 19.0529 16.3074 19.0529C15.9202 19.4508 14.3521 20.3771 14.3521 20.3771V19.9877L13.2019 20.455L12.6843 19.9877L12.6267 20.455C12.4727 20.2268 9.34863 18.1182 9.34863 18.1182C9.34863 18.1182 9.88492 19.0727 9.46365 18.5856C9.44861 18.5682 9.43318 18.5496 9.4174 18.5298C8.99127 17.9961 8.31344 16.6383 8.31344 16.6383L8.19842 17.573C7.182 15.5972 7.22073 13.1331 7.22073 13.1331L7.0498 7.98723H7.50989L7.68082 11.6532L8.42846 12.8994C8.91191 13.6062 10.2113 13.2889 10.2113 13.2889C13.9664 15.8944 16.3649 13.1331 16.3649 13.1331C16.3649 13.1331 17.9917 13.4941 18.4928 13.2889C18.994 13.0837 19.0664 7.97998 19.0664 7.97998H19.4689C19.4689 7.97998 19.2661 14.8431 19.183 15.2362ZM16.4862 15.6314C16.4036 14.6409 15.8009 14.7249 15.8009 14.7249C14.7293 15.0373 13.8882 15.2109 13.231 15.2991V15.2927C12.5785 15.2052 11.7432 15.033 10.6791 14.7231C10.6791 14.7231 10.0806 14.6398 9.99864 15.6222C9.99864 15.6222 9.75829 16.3817 10.5657 16.8023L11.5865 17.3643C11.5865 17.3643 12.284 17.5834 12.267 16.7461C12.267 16.7461 12.196 16.6275 12.6072 16.5214H13.231V16.5398H13.8592C14.2734 16.6469 14.2019 16.7707 14.2019 16.7707C14.1847 17.6148 14.8872 17.3939 14.8872 17.3939L15.9151 16.8231C16.7282 16.3991 16.4862 15.6314 16.4862 15.6314Z" fill="#3B434F"/>
<path d="M16.322 15.2626C15.8113 15.7061 14.6578 16.128 13.3156 16.128C11.9734 16.128 10.8198 15.7061 10.3091 15.2626C10.3091 15.2626 10.2569 15.1188 10.3335 15.0421C10.4116 14.9641 10.5339 14.9811 10.5339 14.9811C11.0441 15.4248 11.9729 15.7908 13.3156 15.7908C14.6583 15.7908 15.5871 15.4248 16.0972 14.9811C16.0972 14.9811 16.222 14.9347 16.2826 14.9953C16.3994 15.1121 16.322 15.2626 16.322 15.2626Z" fill="#3B434F"/>
<path d="M12.3882 16.8024H14.1864V17.0833H12.3882V16.8024Z" fill="#3B434F"/>
<path d="M6.82106 9.07157C6.82028 9.07161 6.75207 9.01714 6.62326 8.97658C6.55888 8.95635 6.47887 8.93971 6.38767 8.9356C6.3649 8.93458 6.34146 8.93433 6.31747 8.93502C6.29348 8.9357 6.26895 8.9373 6.24402 8.93996C6.19415 8.94529 6.14265 8.95487 6.09082 8.96977C5.88331 9.02941 5.67161 9.1744 5.54729 9.47367C5.48488 9.62331 5.44371 9.81154 5.43282 10.047C5.4301 10.1059 5.42927 10.1678 5.43046 10.2327C5.43166 10.2976 5.43488 10.3656 5.44027 10.4369C5.45103 10.5793 5.47046 10.7347 5.49942 10.904C5.49878 10.9039 5.47241 11.4157 5.6554 12.0039C5.82742 12.5789 6.24051 13.2853 7.00322 13.4871C6.9155 12.0265 6.91277 10.5386 6.82106 9.07157Z" fill="white"/>
<path d="M6.90795 9.13046C6.90795 9.13046 5.57925 8.71876 5.62601 10.0847C5.62601 10.0847 5.82383 12.0654 5.90974 12.248C5.90974 12.248 6.43155 13.4012 7.29273 13.4523C8.13441 13.5023 7.29273 13.4523 7.29273 13.4523L7.30318 13.824C7.30318 13.824 5.78956 13.6299 5.49721 11.8856L5.26647 10.301C5.26647 10.301 5.0873 8.20395 6.82519 8.73715C8.51824 9.25659 6.82519 8.73715 6.82519 8.73715L6.90795 9.13046Z" fill="#3B434F"/>
<path d="M6.46933 11.8823C6.46933 11.8823 6.39497 11.9385 6.33109 11.9385C6.26721 11.9385 6.19376 11.8823 6.19376 11.8823L6.05664 10.5005C6.05664 10.5005 6.24583 9.81997 7.04865 10.1796L7.06763 10.5747C7.06763 10.5747 6.36328 10.3249 6.37784 10.636C6.39186 10.9354 6.46933 11.8823 6.46933 11.8823Z" fill="#3B434F"/>
<path d="M19.7289 9.07477C19.7296 9.07482 19.7981 9.02038 19.9275 8.97985C19.9922 8.95963 20.0725 8.943 20.1641 8.9389C20.187 8.93787 20.2106 8.93763 20.2347 8.93831C20.2587 8.93899 20.2834 8.94059 20.3084 8.94326C20.3585 8.94858 20.4102 8.95815 20.4623 8.97304C20.6707 9.03264 20.8833 9.17754 21.0082 9.4766C21.0709 9.62614 21.1122 9.81424 21.1232 10.0496C21.1259 10.1084 21.1267 10.1702 21.1255 10.2351C21.1243 10.3 21.1211 10.3679 21.1157 10.4391C21.1049 10.5815 21.0854 10.7368 21.0563 10.906C21.0569 10.9058 21.0834 11.4173 20.8996 12.0051C20.7268 12.5797 20.3119 13.2856 19.5459 13.4874C19.634 12.0277 19.6367 10.5408 19.7289 9.07477Z" fill="white"/>
<path d="M19.6411 9.13361C19.6411 9.13361 20.9756 8.72219 20.9286 10.0872C20.9286 10.0872 20.7299 12.0666 20.6437 12.249C20.6437 12.249 20.1196 13.4015 19.2546 13.4525C18.4093 13.5025 19.2546 13.4525 19.2546 13.4525L19.2441 13.824C19.2441 13.824 20.7644 13.6301 21.058 11.8869L21.2898 10.3034C21.2898 10.3034 21.4697 8.20773 19.7242 8.74057C18.0237 9.25966 19.7242 8.74057 19.7242 8.74057L19.6411 9.13361Z" fill="#3B434F"/>
<path d="M20.0816 11.8836C20.0816 11.8836 20.1563 11.9398 20.2205 11.9398C20.2846 11.9398 20.3584 11.8836 20.3584 11.8836L20.4961 10.5027C20.4961 10.5027 20.3061 9.82271 19.4998 10.1821L19.4807 10.5769C19.4807 10.5769 20.1881 10.3273 20.1735 10.6381C20.1594 10.9373 20.0816 11.8836 20.0816 11.8836Z" fill="#3B434F"/>
<path fill-rule="evenodd" clip-rule="evenodd" d="M13.8072 11.7729C13.84 11.7729 13.8728 11.7729 13.9055 11.7729C14.1089 12.049 14.1916 12.4733 14.2989 12.8406C14.3322 12.9544 14.2999 13.1535 14.2708 13.234C14.1643 13.5287 13.8297 13.5234 13.5543 13.6554C13.4804 13.6909 13.4253 13.7521 13.3295 13.7678C13.2671 13.7128 13.1917 13.702 13.1609 13.6133C13.0851 13.5088 13.1829 13.4435 13.2593 13.4026C13.398 13.3282 13.8262 13.2549 13.8774 13.1216C13.9409 13.0494 13.8987 12.8325 13.8774 12.7563C13.823 12.5612 13.7969 12.3984 13.7229 12.2225C13.6738 12.1056 13.5875 11.9824 13.6386 11.8431C13.681 11.8249 13.7725 11.8043 13.8072 11.7729Z" fill="#3B434F"/>
<path d="M9.91558 9.60938H10.309C10.5262 9.60938 10.7023 9.78549 10.7023 10.0027C10.7023 10.22 10.5262 10.3961 10.309 10.3961H9.91558C9.69833 10.3961 9.52222 10.22 9.52222 10.0027C9.52222 9.78549 9.69833 9.60938 9.91558 9.60938Z" fill="#3B434F"/>
<path d="M16.3218 9.60938H16.7152C16.9325 9.60938 17.1086 9.78549 17.1086 10.0027C17.1086 10.22 16.9325 10.3961 16.7152 10.3961H16.3218C16.1046 10.3961 15.9285 10.22 15.9285 10.0027C15.9285 9.78549 16.1046 9.60938 16.3218 9.60938Z" fill="#3B434F"/>
<path d="M16.6873 11.4638C17.0752 11.4638 17.3897 11.7783 17.3897 12.1662C17.3897 12.5542 17.0752 12.8687 16.6873 12.8687C16.2994 12.8687 15.9849 12.5542 15.9849 12.1662C15.9849 11.7783 16.2994 11.4638 16.6873 11.4638Z" fill="#EDF1F1"/>
<path d="M9.8875 11.4638C10.2754 11.4638 10.5899 11.7783 10.5899 12.1662C10.5899 12.5542 10.2754 12.8687 9.8875 12.8687C9.49955 12.8687 9.18506 12.5542 9.18506 12.1662C9.18506 11.7783 9.49955 11.4638 9.8875 11.4638Z" fill="#EDF1F1"/>
<path d="M7.16423 10.9019C7.16423 10.9019 7.94588 7.47773 8.62607 6.54111C9.30626 5.60449 9.89487 5.38047 10.2004 5.35182C10.5059 5.32317 12.9117 6.03435 16.2164 5.21967C16.2164 5.21967 17.5195 5.16767 18.0719 6.47504C18.0719 6.47504 19.2364 8.5585 19.4213 10.6376H19.6462C19.6462 10.6376 20.1227 6.99303 19.9273 4.82324C19.7318 2.65346 16.8911 1.58573 16.8911 1.58573L17.5096 1.12322C17.5096 1.12322 16.0657 0.676849 15.4855 0.925008L15.9353 0C15.9353 0 13.0213 0.00580802 11.3811 1.32144L11.4373 0.660717C11.4373 0.660717 5.65604 1.54727 6.8831 10.7697L7.16423 10.9019Z" fill="#3B434F"/>
<path fill-rule="evenodd" clip-rule="evenodd" d="M19.6385 8.78483C19.5996 9.10592 19.5655 9.49883 19.4937 9.85011C19.2791 10.9006 18.3459 11.8738 16.7526 11.9847C15.1593 12.0956 13.8032 11.3197 13.7237 10.2517C13.7103 10.0706 13.6742 9.8674 13.6466 9.66984C13.4211 9.54892 13.1887 9.54864 12.9493 9.66901C12.9214 9.87105 12.884 10.0796 12.8702 10.265C12.7905 11.3365 11.4301 12.115 9.83177 12.0037C8.2334 11.8925 7.29732 10.916 7.08202 9.86211C7.01002 9.50966 6.97577 9.11545 6.93678 8.7933L6.7019 8.77695L6.7349 8.33347L6.79221 8.33746L8.24581 8.43865L9.47281 8.52406L10.7021 8.60962L12.6168 8.7429C12.7489 8.75906 12.8367 8.81384 12.8932 8.89561C13.1682 9.01205 13.4352 9.01251 13.6944 8.89699C13.7504 8.80995 13.8394 8.75135 13.9763 8.7346L15.885 8.60177L17.1104 8.51648L18.3336 8.43135L19.7826 8.33051L19.8726 8.33051V8.76854L19.6385 8.78483ZM12.1027 9.26404L8.35012 9.00283C7.85932 8.9619 7.68535 9.49539 7.6551 9.902C7.59133 10.7592 8.57878 11.5265 9.86063 11.6157C11.1425 11.7049 12.2333 11.0823 12.2971 10.2251C12.3274 9.81851 12.4647 9.5674 12.1027 9.26404ZM18.9224 9.88987C18.8923 9.48461 18.7189 8.95288 18.2296 8.99367L14.4889 9.25402C14.128 9.55638 14.2649 9.80666 14.295 10.2119C14.3586 11.0663 15.446 11.6869 16.7238 11.5979C18.0017 11.509 18.986 10.7443 18.9224 9.88987Z" fill="#3B434F"/>
</g>
<defs>
<clipPath id="clip0_887_4">
<rect width="27" height="27" fill="white"/>
</clipPath>
</defs>
</svg>
