<svg width="24" height="24" viewBox="0 0 24 24" fill="none" xmlns="http://www.w3.org/2000/svg">
<g clip-path="url(#clip0_831_8)">
<path d="M0.632812 18.6094L0.421875 15.6562L0.304688 15.5391H0.421875H23.5312V17.9062L22.7344 19.4062H1.45312L0.632812 18.6094Z" fill="#C3DDFF"/>
<path d="M5.50781 5.13281L5.67188 0.46875H8.32031L8.76562 5.29688L9.63281 5.83594C8.76562 6.96094 7.0125 9.19687 6.9375 9.14062C6.8625 9.08438 6.625 8.88281 6.51562 8.78906L5.08594 7.05469L4.61719 5.83594L5.50781 5.13281Z" fill="#69D6F4"/>
<path d="M9.32812 21.4688V19.5469L14.2969 19.4062L14.4375 19.8516L15.0234 22.3125L15.1641 23.5078H8.78906V23.0156L9.32812 21.4688Z" fill="#FFB44E"/>
<path d="M5.29688 0.084374C5.03906 0.210937 5.01563 0.304687 5.01563 1.20469V2.01562H3.40781C1.66406 2.01562 1.47656 2.03437 1.02188 2.28281C0.726564 2.44687 0.351564 2.84531 0.210939 3.15C0.150002 3.28594 0.0750017 3.53437 0.0515642 3.70312C-0.0140608 4.10625 -0.0187483 17.9062 0.0468767 18.3C0.140627 18.8812 0.567189 19.4953 1.04063 19.7391C1.49531 19.9734 1.425 19.9687 5.33906 19.9687H9.01406L8.98125 20.4C8.94375 20.9109 8.80313 21.6375 8.68125 21.9375C8.40469 22.6359 8.10469 22.9359 7.60781 23.0016C7.18125 23.0531 7.03125 23.1891 7.03125 23.5172C7.03125 23.7187 7.14844 23.8828 7.34531 23.9578C7.5 24.0141 16.5 24.0141 16.6547 23.9578C16.8516 23.8828 16.9688 23.7187 16.9688 23.5172C16.9688 23.1891 16.8188 23.0531 16.3922 23.0016C16.2703 22.9828 16.1109 22.9406 16.0359 22.8984C15.4828 22.6125 15.1219 21.7078 15.0141 20.3531L14.9859 19.9547L18.4031 19.9875C20.6063 20.0062 21.9516 20.0016 22.1953 19.9687C23.0156 19.8656 23.6016 19.3922 23.9016 18.5859C23.9625 18.4219 23.9766 17.4609 23.9906 11.2031C23.9953 6.67031 23.9859 3.9 23.9578 3.7125C23.8359 2.91562 23.2688 2.29219 22.4766 2.08125C22.2844 2.02969 21 2.01562 15.6234 2.01562H9V1.24219C9 0.337499 8.95781 0.178124 8.7 0.0703115C8.56406 0.0140615 8.24063 -9.53674e-07 6.99844 -9.53674e-07C5.62969 -9.53674e-07 5.44219 0.00937405 5.29688 0.084374ZM8.01563 3.36094L8.03906 5.71875L8.16563 5.84531C8.27344 5.95312 8.34375 5.97656 8.63906 5.99531L8.98594 6.02344L7.99219 7.34531L7.00313 8.6625L6.00938 7.34531L5.01563 6.02344L5.32969 6C5.50781 5.98594 5.69531 5.94844 5.75156 5.91562C6 5.775 6 5.76094 6 3.28125V0.984374L6.99844 0.993749L7.99219 1.00781L8.01563 3.36094ZM5.01563 4.00781V5.01562H4.44844C3.82969 5.01562 3.66563 5.06719 3.56719 5.28281C3.44063 5.56406 3.44531 5.57812 5.08594 7.76719C5.95313 8.92031 6.70781 9.89062 6.76406 9.92344C6.90938 10.0031 7.12969 9.99844 7.25625 9.90937C7.36406 9.83437 10.2375 6.0375 10.4156 5.73281C10.5422 5.52656 10.5 5.29687 10.3078 5.1375C10.1719 5.02031 10.1391 5.01562 9.58125 5.01562H9V4.00781V3H15.6047H22.2094L22.4578 3.13125C22.6406 3.225 22.7484 3.32344 22.8516 3.49219L22.9922 3.71719L23.0063 9.36094L23.0156 15H12H0.984377V9.40781V3.82031L1.09688 3.58125C1.20469 3.34219 1.41563 3.14062 1.64063 3.05156C1.71094 3.02344 2.43281 3.00469 3.38906 3.00469L5.01563 3V4.00781ZM23.0063 17.1187C22.9922 18.1875 22.9875 18.2719 22.8891 18.45C22.7625 18.6844 22.5609 18.8625 22.3313 18.9375C22.1953 18.9844 19.8188 18.9984 11.9578 19.0031L1.75781 19.0078L1.56094 18.9047C1.32188 18.7781 1.11094 18.5203 1.03594 18.2859C1.00313 18.1734 0.984377 17.7047 0.984377 17.0437V15.9844H12.0047H23.0203L23.0063 17.1187ZM14.0063 20.2266C14.0531 21.1172 14.2781 22.1016 14.5594 22.6547C14.6438 22.8328 14.7188 22.9828 14.7188 22.9969C14.7188 23.0062 13.4953 23.0156 12 23.0156C10.5047 23.0156 9.28125 23.0062 9.28125 22.9969C9.28125 22.9828 9.35156 22.8281 9.44063 22.6547C9.52969 22.4812 9.64688 22.1859 9.70313 22.0078C9.82031 21.6234 9.98438 20.6156 9.98438 20.2687C9.98438 20.1375 9.99844 20.0156 10.0172 20.0016C10.0313 19.9828 10.9359 19.9734 12.0188 19.9781L13.9922 19.9922L14.0063 20.2266Z" fill="#2B2B2B"/>
<path d="M8.97656 5.01562V3H22.2188L22.7344 3.35156L23.0156 3.72656V14.9766H1.00781V10.0781V3.9375V3.77344L1.14844 3.46875L1.38281 3.21094L1.66406 3.04688L1.94531 3H5.01562V5.01562H3.91406L3.67969 5.10938L3.5625 5.29688L3.51562 5.48438L3.67969 5.78906L6.72656 9.89062L6.84375 9.98438H7.05469L7.26562 9.89062L10.4297 5.69531L10.5 5.48438L10.4297 5.25L10.2891 5.10938L10.1719 5.01562H8.97656Z" fill="#FFB44E"/>
<path d="M14.5312 6.75L15.75 6.14062L16.875 5.76562L17.625 5.83594L18.7031 6.14062L19.6172 6.89062C19.8359 7.52344 20.2734 8.79844 20.2734 8.83594C20.2734 8.88281 20.2969 9.44531 20.2734 9.49219C20.2547 9.52969 19.7812 10.6016 19.5469 11.1328L18.5156 11.8359C18.2266 11.9375 17.6297 12.1406 17.5547 12.1406H16.5703C16.5234 12.1406 15.7031 11.8828 15.6562 11.8828C15.6188 11.8828 15.1562 11.7266 14.9297 11.6484L14.2734 11.0156L13.9219 9.75L13.5703 9.39844L13.9688 8.39062L14.25 7.52344L14.5312 6.75Z" fill="#C3DDFF"/>
<path d="M15.9844 5.14687C15.9094 5.22187 15.8297 5.37656 15.7969 5.48906C15.6984 5.87812 15.7078 5.87344 15.4453 5.70937C15.2765 5.60156 15.1547 5.55937 15.0094 5.55469C14.8125 5.55469 14.7937 5.56875 14.1703 6.19687L13.5328 6.83906L13.5562 7.04062C13.5703 7.15312 13.6359 7.33594 13.7062 7.44375C13.7718 7.55156 13.8281 7.65469 13.8281 7.67812C13.8281 7.70156 13.7156 7.74375 13.575 7.77656C13.2562 7.84687 13.0968 7.96875 13.0312 8.19375C12.9703 8.41875 12.9703 9.58125 13.0312 9.80625C13.0968 10.0312 13.2562 10.1531 13.575 10.2234C13.7156 10.2562 13.8281 10.2984 13.8281 10.3219C13.8281 10.3453 13.7718 10.4484 13.7062 10.5562C13.6359 10.6641 13.5703 10.8469 13.5562 10.9594L13.5328 11.1609L14.1703 11.8031C14.7937 12.4312 14.8125 12.4453 15.0094 12.4453C15.1547 12.4406 15.2765 12.3984 15.4453 12.2953C15.7078 12.1266 15.7078 12.1266 15.7969 12.5016C15.8344 12.675 15.8953 12.7828 15.9937 12.8672C16.1297 12.9844 16.1437 12.9844 16.9734 12.9844C17.6203 12.9844 17.85 12.9703 17.9484 12.9141C18.089 12.8437 18.2015 12.6234 18.2578 12.3141L18.2906 12.1406L18.5906 12.3094C19.0547 12.5672 19.1109 12.5437 19.8422 11.8172C20.4234 11.2359 20.4375 11.2125 20.4375 11.0156C20.4375 10.875 20.3953 10.7344 20.2969 10.5656C20.2219 10.4297 20.175 10.3078 20.1937 10.2984C20.2125 10.2844 20.3015 10.2609 20.3906 10.2422C20.6812 10.1812 20.8922 10.0453 20.9484 9.88594C21.014 9.68906 21.014 8.31094 20.9484 8.11406C20.8922 7.95469 20.6812 7.81875 20.3906 7.75781C20.3015 7.73906 20.2125 7.71562 20.1937 7.70156C20.175 7.69219 20.2219 7.57031 20.2969 7.43437C20.3953 7.26562 20.4375 7.125 20.4375 6.98437C20.4375 6.7875 20.4234 6.76406 19.8422 6.18281C19.1109 5.45625 19.0547 5.43281 18.5906 5.69062L18.2906 5.85937L18.2578 5.68125C18.2109 5.40937 18.0562 5.12812 17.925 5.07187C17.85 5.03437 17.5031 5.01562 16.964 5.01562H16.1156L15.9844 5.14687ZM17.3906 6.28594C17.4703 6.64687 17.5687 6.76875 17.8875 6.88594C18.2344 7.01719 18.3047 7.0125 18.6281 6.81562L18.9047 6.65156L19.1203 6.86719L19.3359 7.08281L19.1859 7.35937C19.0078 7.67812 18.9937 7.86094 19.1297 8.15625C19.2703 8.46562 19.3359 8.51719 19.6922 8.61094L20.0156 8.69062V9V9.30937L19.6922 9.38906C19.3359 9.48281 19.2703 9.53437 19.1297 9.84375C18.9937 10.1391 19.0078 10.3219 19.1859 10.6406L19.3359 10.9172L19.1203 11.1328L18.9047 11.3484L18.6281 11.1844C18.3094 10.9875 18.2344 10.9828 17.8922 11.1094C17.5687 11.2312 17.489 11.3203 17.3906 11.6812L17.3109 11.9766L17.0015 11.9906L16.6922 12.0047L16.6406 11.8031C16.6125 11.6906 16.575 11.5594 16.5609 11.5078C16.5187 11.3484 16.3594 11.2125 16.0969 11.1094C15.7969 10.9875 15.6609 11.0016 15.3422 11.1984L15.1172 11.3391L14.8875 11.1141L14.6578 10.8844L14.7984 10.6547C14.9953 10.3359 15.0094 10.2422 14.9062 9.94219C14.789 9.60469 14.625 9.45937 14.2828 9.37969L14.0156 9.32344V9V8.67656L14.2828 8.62031C14.625 8.54062 14.789 8.39531 14.9062 8.05781C15.0094 7.75781 14.9953 7.66406 14.7984 7.34531L14.6578 7.11562L14.8875 6.88594L15.1172 6.66094L15.3422 6.80156C15.6609 6.99844 15.7969 7.0125 16.0969 6.89062C16.4109 6.76406 16.5234 6.64687 16.5937 6.375C16.6219 6.25781 16.6547 6.12656 16.6687 6.07969C16.6875 6.01406 16.7484 6 17.0109 6H17.3297L17.3906 6.28594Z" fill="#2B2B2B"/>
<path d="M16.5563 8.11411C16.1531 8.31567 15.9375 8.79379 16.05 9.22973C16.3125 10.2375 17.6953 10.2329 17.9625 9.22036C18.1688 8.44223 17.2922 7.74849 16.5563 8.11411Z" fill="#2B2B2B"/>
<path d="M3.28122 11.0766C3.21559 11.1094 3.12653 11.2125 3.07497 11.311C2.99997 11.4704 2.99528 11.5079 3.05622 11.6625C3.18747 12.0141 3.00465 12 6.99372 12C9.08903 12 10.589 11.9813 10.6547 11.9579C10.9312 11.85 11.0578 11.5079 10.9218 11.2454C10.7953 11.011 10.8609 11.0157 6.9984 11.0157C4.2234 11.0157 3.37028 11.0297 3.28122 11.0766Z" fill="#2B2B2B"/>
<path d="M3.17345 13.1484C2.97189 13.3547 2.97189 13.6453 3.17345 13.8516L3.29533 13.9688H5.49377H7.69689L7.83283 13.8328C7.94065 13.725 7.96877 13.6547 7.96877 13.5C7.96877 13.3453 7.94065 13.275 7.83283 13.1672L7.69689 13.0312H5.49377H3.29533L3.17345 13.1484Z" fill="#2B2B2B"/>
<path d="M11.7656 16.5422C11.2875 16.6969 11.0156 17.0391 11.0156 17.4984C11.0156 17.7891 11.2125 18.1641 11.4516 18.3187C11.6156 18.4266 11.6906 18.4453 12 18.4453C12.3094 18.4453 12.3844 18.4266 12.5484 18.3187C12.7875 18.1641 12.9844 17.7891 12.9844 17.4984C12.9844 17.2641 12.8859 16.9922 12.7359 16.8375C12.5156 16.5984 12.0375 16.4531 11.7656 16.5422Z" fill="#2B2B2B"/>
</g>
<defs>
<clipPath id="clip0_831_8">
<rect width="24" height="24" fill="white"/>
</clipPath>
</defs>
</svg>
