<svg width="27" height="27" viewBox="0 0 27 27" fill="none" xmlns="http://www.w3.org/2000/svg">
<path d="M8.72699 8.00024C7.84884 8.00024 7.13301 8.70927 7.12189 9.58495H10.3321C10.321 8.70927 9.60514 8.00024 8.72699 8.00024Z" fill="white"/>
<path d="M9.51938 5.62624C9.51938 5.18932 9.16404 4.83398 8.72713 4.83398C8.29021 4.83398 7.93488 5.18932 7.93488 5.62624C7.93488 6.06315 8.29021 6.41849 8.72713 6.41849C9.16404 6.41849 9.51938 6.06315 9.51938 5.62624Z" fill="white"/>
<path d="M19.4546 21.832V26.5371L24.1595 21.832H19.4546Z" fill="white"/>
<path d="M17.8728 20.2496H24.6232V0H2.37305V27H17.8728V20.2496ZM6.35264 5.6261C6.35264 4.31701 7.41763 3.25182 8.72692 3.25182C10.036 3.25182 11.1012 4.31701 11.1012 5.6261C11.1012 6.15921 10.9245 6.65174 10.6268 7.04828C11.4075 7.6298 11.9141 8.55965 11.9141 9.60569V11.1671H5.53958V9.60569C5.53958 8.55965 6.04612 7.6298 6.82684 7.04828C6.52917 6.65174 6.35264 6.15921 6.35264 5.6261ZM5.53896 20.6667V19.0847H11.5117V20.6667H5.53896ZM11.5117 22.2514V23.8335H5.53896V22.2514H11.5117ZM21.4571 17.5002H5.53896V15.9182H21.4571V17.5002ZM21.4571 14.3337H5.53896V12.7516H21.4571V14.3337ZM21.4571 11.1671H13.4981V9.58509H21.4571V11.1671ZM21.4571 8.00038H13.4981V6.41835H21.4571V8.00038ZM21.4571 4.83385H13.4981V3.25182H21.4571V4.83385Z" fill="white"/>
</svg>
