<svg width="27" height="27" viewBox="0 0 27 27" fill="none" xmlns="http://www.w3.org/2000/svg">
<g clip-path="url(#clip0_4:47)">
<path d="M14.4 7.20001C13.9032 7.20001 13.5 7.60321 13.5 8.10001C13.5 8.59681 13.9032 9.00001 14.4 9.00001C16.3854 9.00001 18 10.6146 18 12.6C18 13.0968 18.4032 13.5 18.9 13.5C19.3968 13.5 19.8 13.0968 19.8 12.6C19.8 9.62281 17.3772 7.20001 14.4 7.20001Z" fill="white"/>
<path d="M14.4 3.59998C13.9032 3.59998 13.5 4.00318 13.5 4.49998C13.5 4.99678 13.9032 5.39998 14.4 5.39998C18.3708 5.39998 21.6 8.62918 21.6 12.6C21.6 13.0968 22.0032 13.5 22.5 13.5C22.9968 13.5 23.4 13.0968 23.4 12.6C23.4 7.63738 19.3626 3.59998 14.4 3.59998Z" fill="white"/>
<path d="M14.4 0C13.9032 0 13.5 0.4032 13.5 0.9C13.5 1.3968 13.9032 1.8 14.4 1.8C20.3562 1.8 25.2 6.6438 25.2 12.6C25.2 13.0968 25.6032 13.5 26.1 13.5C26.5968 13.5 27 13.0968 27 12.6C27 5.652 21.3462 0 14.4 0Z" fill="white"/>
<path d="M24.3 19.8C21.6864 19.8 19.197 19.2312 16.902 18.1098C16.686 18.0018 16.4376 17.9892 16.2126 18.0684C15.9858 18.1476 15.8004 18.3132 15.696 18.5274L14.2812 21.456C10.62 19.413 7.5888 16.3836 5.5476 12.7224L8.4744 11.304C8.6904 11.1996 8.8542 11.0142 8.9334 10.7874C9.0108 10.5624 8.9964 10.314 8.8902 10.098C7.7688 7.80299 7.2 5.31359 7.2 2.69999C7.2 2.20319 6.7968 1.79999 6.3 1.79999H0.9C0.4032 1.79999 0 2.20319 0 2.69999C0 16.0992 10.9008 27 24.3 27C24.7968 27 25.2 26.5968 25.2 26.1V20.7C25.2 20.2032 24.7968 19.8 24.3 19.8Z" fill="white"/>
</g>
<defs>
<clipPath id="clip0_4:47">
<rect width="27" height="27" fill="white"/>
</clipPath>
</defs>
</svg>
