<svg width="15" height="15" viewBox="0 0 15 15" fill="none" xmlns="http://www.w3.org/2000/svg">
<path d="M9.94312 7.57687L15 10.7737V4.245L9.94312 7.57687Z" fill="white"/>
<path d="M0 4.245V10.7737L5.05688 7.57687L0 4.245Z" fill="white"/>
<path d="M14.0625 2.34375H0.937451C0.469639 2.34375 0.0983887 2.6925 0.0280762 3.14156L7.49995 8.06437L14.9718 3.14156C14.9015 2.6925 14.5303 2.34375 14.0625 2.34375Z" fill="white"/>
<path d="M9.0844 8.14312L7.75784 9.01687C7.67909 9.06843 7.59003 9.09374 7.50003 9.09374C7.41003 9.09374 7.32097 9.06843 7.24222 9.01687L5.91565 8.14218L0.0300293 11.865C0.102217 12.3103 0.471592 12.6562 0.937529 12.6562H14.0625C14.5285 12.6562 14.8978 12.3103 14.97 11.865L9.0844 8.14312Z" fill="white"/>
</svg>
