<svg width="30" height="30" viewBox="0 0 30 30" fill="none" xmlns="http://www.w3.org/2000/svg">
<g clip-path="url(#clip0_133:59)">
<path d="M15.6191 16.9947C14.4983 16.9895 13.3849 16.8139 12.3169 16.4739C10.6105 15.903 9.34302 14.4584 8.99899 12.6922C8.62254 10.879 9.30859 8.96173 10.8808 7.43223C11.0495 7.26793 11.2248 7.11054 11.4067 6.96008C13.0165 5.61235 15.1869 5.14398 17.2092 5.70788C19.1671 6.33278 20.5199 8.12206 20.5876 10.1761C20.6609 11.3585 20.2756 12.5236 19.5117 13.4291C18.9225 14.1712 17.9679 14.5218 17.0385 14.3373C16.6584 14.2584 16.3268 14.0282 16.12 13.6997C15.9344 13.3806 15.8868 12.9996 15.9882 12.6447C16.4254 10.9919 16.87 8.48013 16.8744 8.45468C16.9054 8.27872 17.028 8.1327 17.1959 8.07162C17.3638 8.01054 17.5516 8.04368 17.6884 8.15855C17.8253 8.27342 17.8904 8.45257 17.8594 8.62853C17.8408 8.73303 17.4031 11.2071 16.9551 12.9003C16.9231 12.9941 16.9311 13.097 16.9773 13.1847C17.0464 13.2803 17.1507 13.3446 17.2673 13.3634C17.8362 13.4583 18.411 13.2301 18.7597 12.7706C19.3529 12.061 19.6501 11.1501 19.5897 10.2272C19.5408 8.59217 18.4687 7.16471 16.912 6.66218C15.2129 6.19483 13.3926 6.59408 12.045 7.72968C11.8843 7.86303 11.7281 8.00263 11.5782 8.14863C10.8009 8.90473 9.55963 10.4736 9.97788 12.4886C10.2589 13.8964 11.2643 15.0501 12.6204 15.5209C14.9654 16.2689 18.335 16.359 20.1104 14.1515C20.2849 13.9414 20.5956 13.9101 20.8084 14.0812C21.0212 14.2523 21.0574 14.5624 20.8897 14.7779C19.5769 16.4106 17.5791 16.9947 15.6191 16.9947Z" fill="#FFB44E"/>
<path d="M13.9074 14.4025C13.3789 14.4116 12.8634 14.2383 12.4477 13.9118C11.488 13.1437 11.4616 11.8095 11.7307 10.9008C11.8213 10.5982 11.943 10.3058 12.0937 10.0282C12.4689 9.27126 13.0688 8.64872 13.8113 8.24575C14.736 7.76595 15.8657 7.9479 16.593 8.69375C16.9538 9.08916 17.2256 9.55738 17.39 10.0668C17.4771 10.3253 17.3409 10.6059 17.0839 10.6974C16.8269 10.7889 16.544 10.6576 16.4481 10.4023C16.3295 10.0259 16.1325 9.67898 15.87 9.3844C15.446 8.95078 14.7853 8.85212 14.2531 9.14295C13.6962 9.45699 13.2487 9.93379 12.9706 10.5094C12.8537 10.7251 12.7593 10.9522 12.6888 11.1872C12.4945 11.8444 12.5372 12.7022 13.0734 13.1315C13.6595 13.6022 14.6484 13.4032 15.2047 12.9233C15.6194 12.55 15.9756 12.1166 16.2616 11.6376C16.3542 11.4824 16.5233 11.3893 16.704 11.394C16.8846 11.3987 17.0487 11.5006 17.1331 11.6604C17.2175 11.8202 17.2091 12.013 17.1111 12.1649C16.7723 12.7293 16.3506 13.2396 15.8601 13.6786C15.3133 14.1399 14.6228 14.3959 13.9074 14.4025Z" fill="#FFB44E"/>
<path d="M28.5 29.9998H1.5C0.67195 29.9989 0.000909355 29.3279 0 28.4998V9.99983C7.86e-06 9.80594 0.112108 9.62954 0.287642 9.54719C0.463175 9.46484 0.670491 9.4914 0.8196 9.61533L13.0882 19.8116C14.1982 20.7284 15.8028 20.7281 16.9126 19.8109L29.18 9.61533C29.3291 9.49114 29.5366 9.46443 29.7123 9.54681C29.888 9.6292 30.0001 9.80579 30 9.99983V28.4998C29.9991 29.3279 29.3281 29.9989 28.5 29.9998ZM1 11.0655V28.4998C1.00036 28.7758 1.22401 28.9995 1.5 28.9998H28.5C28.776 28.9996 28.9998 28.7759 29 28.4998V11.0655L17.5511 20.5805C16.0707 21.8038 13.9304 21.8042 12.4497 20.5812L1 11.0655Z" fill="#FFB44E"/>
<path d="M0.500489 10.4998C0.282704 10.5 0.0898419 10.3592 0.0236724 10.1517C-0.0424972 9.94421 0.0332484 9.71775 0.210939 9.59183L4.71094 6.40184C4.93624 6.24569 5.24525 6.30005 5.40373 6.52372C5.56221 6.74739 5.51105 7.05695 5.28904 7.21774L0.789039 10.4077C0.704777 10.4677 0.603908 10.4999 0.500489 10.4998Z" fill="#FFB44E"/>
<path d="M29.4994 10.4998C29.396 10.4999 29.2952 10.4677 29.2109 10.4077L24.7109 7.21774C24.4889 7.05695 24.4377 6.74739 24.5962 6.52372C24.7547 6.30005 25.0637 6.24569 25.289 6.40184L29.789 9.59183C29.9667 9.71775 30.0424 9.94421 29.9763 10.1517C29.9101 10.3592 29.7172 10.5 29.4994 10.4998Z" fill="#FFB44E"/>
<path d="M19.6197 3.49992C19.5162 3.49997 19.4152 3.4678 19.3308 3.40787L16.9408 1.71287C15.8314 0.77536 14.2102 0.765594 13.0895 1.68967L10.6695 3.40792C10.5238 3.51127 10.334 3.52903 10.1716 3.45448C10.0092 3.37994 9.89894 3.22443 9.88231 3.04653C9.86567 2.86863 9.9452 2.69537 10.091 2.59202L12.4809 0.897017C13.9578 -0.3105 16.0835 -0.300895 17.5493 0.919917L19.9093 2.59182C20.0872 2.71771 20.163 2.94427 20.0968 3.15186C20.0306 3.35944 19.8376 3.50025 19.6197 3.49992Z" fill="#FFB44E"/>
<path d="M0.824925 29.7297C0.614209 29.7299 0.425994 29.598 0.35431 29.3998C0.282627 29.2017 0.342863 28.9799 0.504925 28.8452L11.9149 19.3652C12.052 19.2486 12.2412 19.2147 12.4103 19.2764C12.5793 19.3381 12.7022 19.4859 12.7319 19.6634C12.7617 19.8409 12.6938 20.0207 12.5541 20.1342L1.14407 29.6142C1.05449 29.6889 0.941552 29.7297 0.824925 29.7297Z" fill="#FFB44E"/>
<path d="M28.9136 29.4836C28.7971 29.4837 28.6842 29.4428 28.5948 29.3681L17.1848 19.8881C17.0451 19.7746 16.9771 19.5948 17.0069 19.4173C17.0366 19.2398 17.1595 19.092 17.3286 19.0303C17.4976 18.9686 17.6868 19.0025 17.8239 19.1191L29.2336 28.5991C29.3957 28.7338 29.4559 28.9556 29.3842 29.1537C29.3125 29.3519 29.1243 29.4838 28.9136 29.4836V29.4836Z" fill="#FFB44E"/>
<path d="M25 14.2398C24.7239 14.2398 24.5 14.016 24.5 13.7398V3.50374C24.4986 3.51424 24.4785 3.50009 24.445 3.49984H5.555C5.5329 3.49848 5.51121 3.50626 5.495 3.52134L5.5 13.7398C5.5 14.016 5.27614 14.2398 5 14.2398C4.72386 14.2398 4.5 14.016 4.5 13.7398V3.49984C4.51613 2.93279 4.9879 2.48562 5.555 2.49984H24.445C25.0121 2.48567 25.4838 2.93281 25.5 3.49984V13.7398C25.5 14.016 25.2761 14.2398 25 14.2398Z" fill="#FFB44E"/>
</g>
<defs>
<clipPath id="clip0_133:59">
<rect width="30" height="30" fill="white"/>
</clipPath>
</defs>
</svg>
