<svg width="15" height="15" viewBox="0 0 15 15" fill="none" xmlns="http://www.w3.org/2000/svg">
<g clip-path="url(#clip0_73:233)">
<path d="M13.3982 6.28988C13.4538 5.93768 13.4885 5.5515 13.4973 5.11846C13.4939 3.26166 12.6051 2.60464 12.4341 2.29662C12.6859 0.889746 12.3923 0.249803 12.2558 0.0307322C11.7521 -0.148034 10.5035 0.492128 9.82132 0.942774C8.70901 0.617177 6.35837 0.648956 5.47686 1.02705C3.85041 -0.137567 2.99017 0.040009 2.99017 0.040009C2.99017 0.040009 2.43403 1.03727 2.84315 2.4962C2.30801 3.17814 1.90914 3.66028 1.90914 4.93917C1.90914 5.24546 1.92817 5.53489 1.96045 5.81335C2.42131 8.23654 4.34139 9.28193 6.22746 9.4622C5.94364 9.67786 5.60291 10.086 5.55577 10.5589C5.19915 10.7894 4.4818 10.8657 3.92396 10.6903C3.14236 10.4433 2.84315 8.89554 1.67268 9.11633C1.41941 9.16372 1.46975 9.33076 1.68907 9.47317C2.04566 9.70447 2.38151 9.99199 2.64038 10.6072C2.83921 11.0796 3.25738 11.923 4.57951 11.923C5.10438 11.923 5.472 11.8609 5.472 11.8609C5.472 11.8609 5.482 13.0646 5.482 13.5341C5.482 14.0743 4.75289 14.226 4.75289 14.4852C4.75289 14.5883 4.99421 14.598 5.18815 14.598C5.57141 14.598 6.36884 14.2788 6.36884 13.7173C6.36884 13.2711 6.37596 11.7716 6.37596 11.509C6.37596 10.9353 6.68344 10.7526 6.68344 10.7526C6.68344 10.7526 6.72108 13.8154 6.60944 14.226C6.47853 14.7089 6.24138 14.6403 6.24138 14.8552C6.24138 15.1759 7.20006 14.9336 7.51804 14.2316C7.76403 13.6833 7.65387 10.6798 7.65387 10.6798L7.91033 10.6742C7.91033 10.6742 7.91327 12.0498 7.90444 12.6782C7.89519 13.3292 7.82803 14.152 8.21464 14.5404C8.46841 14.7958 9.24584 15.244 9.24584 14.8344C9.24584 14.5971 8.70143 14.4009 8.70143 13.7578V10.7952C9.03216 10.7952 9.10052 11.7691 9.10052 11.7691L9.21974 13.5783C9.21974 13.5783 9.14057 14.2384 9.93292 14.514C10.2126 14.6119 10.811 14.6386 10.8391 14.4741C10.8672 14.3093 10.1186 14.0655 10.1114 13.5545C10.1076 13.2433 10.1254 13.0612 10.1254 11.7075C10.1254 10.3546 9.94364 9.85412 9.31031 9.45528C11.1469 9.2668 13.0545 8.44658 13.3982 6.28988Z" fill="white"/>
</g>
<defs>
<clipPath id="clip0_73:233">
<rect width="15" height="15" fill="white"/>
</clipPath>
</defs>
</svg>
