<svg width="27" height="27" viewBox="0 0 27 27" fill="none" xmlns="http://www.w3.org/2000/svg">
<path d="M3.67128 24.8576C3.67128 24.8576 3.6473 25.4612 4.23686 25.4612C4.97032 25.4612 11.0428 25.4532 11.0428 25.4532L11.0528 19.8763C11.0528 19.8763 10.9569 18.957 11.8492 18.957H14.6731C15.7283 18.957 15.6634 19.8763 15.6634 19.8763L15.6514 25.4352C15.6514 25.4352 21.4091 25.4352 22.3135 25.4352C23.0619 25.4352 23.0279 24.6837 23.0279 24.6837V14.4024L13.6389 6.05054L3.67128 14.4024V24.8576Z" fill="white"/>
<path d="M0 13.6249C0 13.6249 0.846373 15.1847 2.69201 13.6249L13.7218 4.29378L24.0632 13.5669C26.1996 15.1078 27 13.5669 27 13.5669L13.7218 1.53882L0 13.6249Z" fill="white"/>
<path d="M23.8124 4.27185H21.1523L21.1633 7.49746L23.8124 9.7448V4.27185Z" fill="white"/>
</svg>
