<svg width="30" height="30" viewBox="0 0 30 30" fill="none" xmlns="http://www.w3.org/2000/svg">
<g clip-path="url(#clip0_133:73)">
<path d="M23.132 12.9045C22.5876 11.884 21.5305 11.2505 20.3745 11.2505H9.62517C8.46919 11.2505 7.41206 11.8841 6.86762 12.9045L2.86743 20.405C2.62697 20.8566 2.5 21.365 2.5 21.8753V26.2502C2.5 27.629 3.62182 28.7502 4.99998 28.7502H24.9996C26.3778 28.7502 27.4996 27.629 27.4996 26.2502V21.8753C27.4996 21.3651 27.3726 20.8566 27.1321 20.4044L23.132 12.9045ZM26.2496 26.2502C26.2496 26.9392 25.6893 27.5001 24.9997 27.5001H4.99998C4.31028 27.5001 3.75002 26.9392 3.75002 26.2502V21.8752C3.75002 21.5694 3.82695 21.2636 3.97097 20.9926L7.97115 13.4928C8.29711 12.8806 8.93184 12.5003 9.62517 12.5003H20.3745C21.0678 12.5003 21.7026 12.8806 22.0285 13.4928L26.0287 20.9921C26.1727 21.2636 26.2496 21.5694 26.2496 21.8752V26.2502Z" fill="#FFB44E"/>
<path d="M11.2487 17.5004C11.9391 17.5004 12.4987 16.9408 12.4987 16.2504C12.4987 15.5601 11.9391 15.0005 11.2487 15.0005C10.5584 15.0005 9.99878 15.5601 9.99878 16.2504C9.99878 16.9408 10.5584 17.5004 11.2487 17.5004Z" fill="#FFB44E"/>
<path d="M11.2487 21.2499C11.9391 21.2499 12.4987 20.6903 12.4987 20C12.4987 19.3096 11.9391 18.75 11.2487 18.75C10.5584 18.75 9.99878 19.3096 9.99878 20C9.99878 20.6903 10.5584 21.2499 11.2487 21.2499Z" fill="#FFB44E"/>
<path d="M11.2487 24.9999C11.9391 24.9999 12.4987 24.4403 12.4987 23.75C12.4987 23.0596 11.9391 22.5 11.2487 22.5C10.5584 22.5 9.99878 23.0596 9.99878 23.75C9.99878 24.4403 10.5584 24.9999 11.2487 24.9999Z" fill="#FFB44E"/>
<path d="M15 24.9999C15.6903 24.9999 16.2499 24.4403 16.2499 23.75C16.2499 23.0596 15.6903 22.5 15 22.5C14.3096 22.5 13.75 23.0596 13.75 23.75C13.75 24.4403 14.3096 24.9999 15 24.9999Z" fill="#FFB44E"/>
<path d="M18.7487 24.9999C19.4391 24.9999 19.9987 24.4403 19.9987 23.75C19.9987 23.0596 19.4391 22.5 18.7487 22.5C18.0584 22.5 17.4988 23.0596 17.4988 23.75C17.4988 24.4403 18.0584 24.9999 18.7487 24.9999Z" fill="#FFB44E"/>
<path d="M15 21.2499C15.6903 21.2499 16.2499 20.6903 16.2499 20C16.2499 19.3096 15.6903 18.75 15 18.75C14.3096 18.75 13.75 19.3096 13.75 20C13.75 20.6903 14.3096 21.2499 15 21.2499Z" fill="#FFB44E"/>
<path d="M18.7487 21.2499C19.4391 21.2499 19.9987 20.6903 19.9987 20C19.9987 19.3096 19.4391 18.75 18.7487 18.75C18.0584 18.75 17.4988 19.3096 17.4988 20C17.4988 20.6903 18.0584 21.2499 18.7487 21.2499Z" fill="#FFB44E"/>
<path d="M15 17.5004C15.6903 17.5004 16.2499 16.9408 16.2499 16.2504C16.2499 15.5601 15.6903 15.0005 15 15.0005C14.3096 15.0005 13.75 15.5601 13.75 16.2504C13.75 16.9408 14.3096 17.5004 15 17.5004Z" fill="#FFB44E"/>
<path d="M18.7487 17.5004C19.4391 17.5004 19.9987 16.9408 19.9987 16.2504C19.9987 15.5601 19.4391 15.0005 18.7487 15.0005C18.0584 15.0005 17.4988 15.5601 17.4988 16.2504C17.4988 16.9408 18.0584 17.5004 18.7487 17.5004Z" fill="#FFB44E"/>
<path d="M29.4868 7.56016C25.6184 3.49166 20.4733 1.25049 14.9992 1.25049C9.52559 1.25049 4.38045 3.49166 0.512686 7.56022C0.172145 7.91846 0 8.38884 0 8.85922C0 9.32955 0.172087 9.79981 0.512686 10.1578L3.39351 13.1894C4.07102 13.9011 5.27334 13.9011 5.95085 13.1894C6.91459 12.1756 8.01015 11.34 9.20152 10.709C9.79846 10.4014 10.1842 9.75382 10.1787 9.14164L10.6145 5.85676C13.7541 4.85212 16.2754 4.85277 19.3857 5.85617L19.8154 9.05926C19.8154 9.752 20.1828 10.3843 20.7834 10.7145C21.9809 11.3487 23.0764 12.1842 24.0408 13.1974C24.3795 13.5544 24.8336 13.7504 25.3194 13.7504C25.8046 13.7504 26.2587 13.5544 26.5975 13.198L29.4869 10.1585C29.8165 9.81182 29.989 9.36001 29.9996 8.90487C30.0108 8.41931 29.8383 7.93 29.4868 7.56016ZM28.5811 9.29662L25.6917 12.3367C25.4897 12.5485 25.1472 12.5479 24.9464 12.3361C23.8887 11.2247 22.6851 10.3073 21.3766 9.6146C21.1819 9.5072 21.0653 9.29966 21.0598 8.97682L20.5727 5.30376C20.5416 5.0688 20.3798 4.87164 20.1558 4.7947C18.3327 4.17034 16.6751 3.85845 15.0125 3.85845C13.3505 3.85845 11.6843 4.17034 9.84539 4.79412C9.62016 4.87041 9.4578 5.06816 9.42669 5.30376L8.93416 9.0592C8.93416 9.28748 8.81147 9.50415 8.62286 9.60118C7.30575 10.2988 6.10214 11.2162 5.04501 12.3276C4.84357 12.5387 4.50057 12.5381 4.29918 12.3281L1.41835 9.29656C1.19254 9.05973 1.19254 8.65878 1.41835 8.42194C5.04811 4.60311 9.87106 2.50045 14.9992 2.50045C20.1272 2.50045 24.9508 4.60305 28.5811 8.422C28.8069 8.65878 28.8069 9.05978 28.5811 9.29662Z" fill="#FFB44E"/>
</g>
<defs>
<clipPath id="clip0_133:73">
<rect width="30" height="30" fill="white"/>
</clipPath>
</defs>
</svg>
