<svg width="27" height="27" viewBox="0 0 27 27" fill="none" xmlns="http://www.w3.org/2000/svg">
<g clip-path="url(#clip0_4:2)">
<path d="M0.00158691 13.8185H3.40019V15.7936H0.00158691V13.8185Z" fill="white"/>
<path d="M19.8902 8.17479V6.39321C19.8902 2.86223 17.028 0 13.497 0C11.7313 0 10.1332 0.715689 8.9761 1.87229C7.8195 3.02942 7.10381 4.62746 7.10381 6.39321V8.17479H0.00177002V12.2363H26.9986V8.17479H19.8902ZM10.591 6.39321C10.591 5.5905 10.9164 4.86426 11.4423 4.33844C11.9681 3.81261 12.6943 3.48721 13.497 3.48721C15.1019 3.48721 16.403 4.78832 16.403 6.39321V8.17479H10.591V6.39321Z" fill="white"/>
<path d="M8.53976 18.897C8.53976 20.3142 7.38685 21.4671 5.97024 21.4671C4.5531 21.4671 3.40019 20.3142 3.40019 18.897V17.376H0.00158691V27.0001H26.9984V17.376H8.53976V18.897ZM23.3066 23.3114H24.8888V24.8936H23.3066V23.3114Z" fill="white"/>
<path d="M8.53973 13.8185H26.9984V15.7936H8.53973V13.8185Z" fill="white"/>
<path d="M6.95756 18.8969V13.8185H4.98242V18.8969C4.98242 19.4417 5.42544 19.8847 5.97025 19.8847C6.51454 19.8847 6.95756 19.4417 6.95756 18.8969Z" fill="white"/>
</g>
<defs>
<clipPath id="clip0_4:2">
<rect width="27" height="27" fill="white"/>
</clipPath>
</defs>
</svg>
