<svg width="27" height="27" viewBox="0 0 27 27" fill="none" xmlns="http://www.w3.org/2000/svg">
<path d="M5.06201 6.75C6.92597 6.75 8.43701 5.23896 8.43701 3.375C8.43701 1.51104 6.92597 0 5.06201 0C3.19805 0 1.68701 1.51104 1.68701 3.375C1.68701 5.23896 3.19805 6.75 5.06201 6.75Z" fill="white"/>
<path d="M10.1212 17.6344L9.35166 9.95794C9.26565 9.09056 8.54334 8.4375 7.67264 8.4375H2.45147C1.58072 8.4375 0.858467 9.09056 0.772404 9.95625L0.00459158 17.6344C-0.0190334 17.8723 0.0585916 18.1069 0.218904 18.2858C0.377582 18.4613 0.605342 18.5625 0.843279 18.5625H1.76634L2.45822 25.4813C2.54428 26.3453 3.26822 27 4.13897 27H5.98678C6.85753 27 7.57978 26.3453 7.66584 25.4813L8.35772 18.5625H9.28078C9.51872 18.5625 9.74653 18.4613 9.90684 18.2858C10.0672 18.1086 10.1448 17.8723 10.1212 17.6344Z" fill="white"/>
<path d="M20.3694 14.3438C20.7474 15.795 22.0569 16.875 23.6246 16.875C25.4859 16.875 26.9996 15.3613 26.9996 13.5C26.9996 11.6387 25.4859 10.125 23.6246 10.125C22.0569 10.125 20.7474 11.2033 20.3694 12.6562H16.8746V4.21875H20.3694C20.7474 5.67 22.0569 6.75 23.6246 6.75C25.4859 6.75 26.9996 5.23631 26.9996 3.375C26.9996 1.51369 25.4859 0 23.6246 0C22.0569 0 20.7474 1.08 20.3694 2.53125H16.0308C15.5651 2.53125 15.1871 2.90925 15.1871 3.375V12.6562H12.6558C12.1901 12.6562 11.8121 13.0326 11.8121 13.5C11.8121 13.9674 12.1901 14.3438 12.6558 14.3438H15.1871V23.625C15.1871 24.0907 15.5651 24.4688 16.0308 24.4688H20.3694C20.7474 25.92 22.0569 27 23.6246 27C25.4859 27 26.9996 25.4863 26.9996 23.625C26.9996 21.7637 25.4859 20.25 23.6246 20.25C22.0569 20.25 20.7474 21.33 20.3694 22.7812H16.8746V14.3438H20.3694Z" fill="white"/>
</svg>
