<svg width="15" height="15" viewBox="0 0 15 15" fill="none" xmlns="http://www.w3.org/2000/svg">
<path d="M14.3751 7.49986C14.3751 6.56904 14.1944 5.67871 13.8331 4.82911C13.4718 3.97951 12.9835 3.24719 12.3683 2.63183C11.7531 2.01646 11.0206 1.5283 10.171 1.16703C9.32143 0.80576 8.43112 0.625028 7.50011 0.625028C7.02477 0.625028 6.53647 0.677356 6.03531 0.781482C5.35804 0.260826 4.59633 0.000274658 3.75014 0.000274658C2.715 0.000274658 1.83121 0.366516 1.09872 1.09883C0.366241 1.83115 0 2.71477 0 3.75008C0 4.59661 0.260216 5.35831 0.781207 6.03509C0.676914 6.53674 0.624921 7.02507 0.624921 7.49988C0.624921 8.43103 0.805653 9.32134 1.16695 10.1709C1.52822 11.0205 2.01655 11.7529 2.63175 12.3682C3.24695 12.9836 3.97943 13.4717 4.82903 13.833C5.67863 14.1943 6.56893 14.375 7.49992 14.375C7.97509 14.375 8.46339 14.3227 8.96471 14.2186C9.64182 14.7392 10.4035 14.9998 11.2499 14.9998C12.2851 14.9998 13.1688 14.6335 13.9013 13.9012C14.6338 13.1687 15 12.2849 15 11.25C15 10.4035 14.7396 9.64207 14.2188 8.96465C14.3229 8.46383 14.3751 7.97553 14.3751 7.49986ZM11.1329 10.4151C10.918 10.7959 10.6299 11.1006 10.2686 11.3283C9.90732 11.5561 9.50845 11.7305 9.07225 11.8505C8.63594 11.971 8.18024 12.0314 7.70507 12.0314C6.60481 12.0314 5.65742 11.8182 4.8632 11.3916C4.06883 10.9652 3.6718 10.4524 3.6718 9.85342C3.6718 9.56055 3.75472 9.31637 3.92093 9.12094C4.08693 8.92568 4.33248 8.82806 4.65819 8.82806C4.84696 8.82806 5.02272 8.88039 5.18549 8.98452C5.34809 9.08867 5.49806 9.21381 5.63468 9.36034C5.77147 9.50685 5.91934 9.65338 6.07906 9.79978C6.23859 9.94629 6.45008 10.0718 6.71393 10.1759C6.97758 10.2801 7.27543 10.332 7.60748 10.332C8.03049 10.332 8.37245 10.2493 8.63284 10.0833C8.89305 9.9169 9.02352 9.70711 9.02352 9.45301C9.02352 9.1928 8.91926 8.99751 8.71095 8.86707C8.56766 8.77627 8.20315 8.65915 7.61723 8.51569L6.1914 8.16397C5.80072 8.0732 5.4654 7.96718 5.18552 7.84665C4.90547 7.72643 4.64505 7.56864 4.40431 7.37321C4.1634 7.17795 3.98113 6.93224 3.85751 6.63576C3.73371 6.33978 3.672 5.99304 3.672 5.59551C3.672 5.12053 3.7809 4.70213 3.9991 4.34086C4.2171 3.97956 4.5069 3.69607 4.8682 3.49126C5.22949 3.28608 5.61845 3.13304 6.03515 3.03201C6.45165 2.93132 6.88134 2.88087 7.32419 2.88087C7.94913 2.88087 8.54156 2.95557 9.10153 3.10518C9.66132 3.25513 10.1237 3.47483 10.4882 3.76433C10.8527 4.0543 11.035 4.37816 11.035 4.73635C11.035 5.02926 10.9422 5.27992 10.7566 5.48817C10.5711 5.69642 10.3252 5.80054 10.0193 5.80054C9.85005 5.80054 9.69379 5.76157 9.55072 5.68343C9.40742 5.60528 9.27729 5.51108 9.16003 5.39994C9.04289 5.28967 8.91912 5.18023 8.78898 5.07301C8.65868 4.96547 8.48292 4.87277 8.26171 4.79449C8.04027 4.71635 7.78961 4.67737 7.50969 4.67737C6.5722 4.67737 6.10354 4.92837 6.10354 5.42919C6.10354 5.54016 6.12798 5.63778 6.17674 5.72207C6.22563 5.80722 6.27933 5.87545 6.3378 5.92724C6.39644 5.97957 6.49409 6.03137 6.63068 6.08333C6.76746 6.13566 6.88117 6.17344 6.97247 6.19584C7.06361 6.21875 7.2069 6.25261 7.40213 6.29843L8.41774 6.53266C8.73663 6.6043 9.02151 6.6792 9.27231 6.75734C9.52283 6.83549 9.79146 6.94612 10.078 7.08922C10.3644 7.23268 10.6021 7.39204 10.791 7.56797C10.9798 7.74339 11.1375 7.96653 11.2646 8.2367C11.3916 8.50719 11.4551 8.80504 11.4551 9.13041C11.4552 9.60637 11.3477 10.0343 11.1329 10.4151Z" fill="white"/>
</svg>
