<svg width="18" height="18" viewBox="0 0 18 18" fill="none" xmlns="http://www.w3.org/2000/svg">
<path d="M9.99974 8.35904L8.76213 8.08438C8.29137 7.97713 7.74947 7.8354 7.74947 7.39156C7.74947 6.94675 8.12959 6.63597 8.81583 6.63597C10.1989 6.63597 10.0725 7.58643 10.7592 7.58643C11.1205 7.58643 11.4368 7.37398 11.4368 7.00868C11.4368 6.15628 10.0725 5.5166 8.91525 5.5166C7.65897 5.5166 6.32111 6.05013 6.32111 7.47107C6.32111 8.15538 6.56555 8.88336 7.9122 9.22105L9.58432 9.63853C10.0904 9.76323 10.217 10.0479 10.217 10.3047C10.217 10.7318 9.79279 11.149 9.02429 11.149C7.52315 11.149 7.73148 9.9938 6.927 9.9938C6.56555 9.9938 6.30325 10.2428 6.30325 10.5981C6.30325 11.2907 7.14426 12.2151 9.02429 12.2151C10.813 12.2151 11.6993 11.353 11.6993 10.1983C11.6993 9.45273 11.3556 8.66116 9.99974 8.35904Z" fill="white"/>
<path d="M9 0C4.0302 0 0 4.0302 0 9C0 13.9698 4.0302 18 9 18C13.9698 18 18 13.9698 18 9C18 4.0302 13.9698 0 9 0ZM13.6858 13.6725C13.0941 14.2645 12.3077 14.5898 11.4711 14.5898C10.9292 14.5898 10.3986 14.4489 9.92986 14.1838C9.62567 14.2377 9.31407 14.2662 9.00316 14.2662C8.28877 14.2662 7.59554 14.1261 6.94336 13.8496C6.31274 13.5838 5.74709 13.2019 5.2608 12.7159C4.77507 12.23 4.39357 11.6643 4.12729 11.034C3.85098 10.3814 3.71118 9.68857 3.71118 8.97404C3.71118 8.66808 3.73865 8.36169 3.79083 8.0619C3.53362 7.59924 3.3967 7.07574 3.3967 6.54305C3.3967 5.7063 3.72272 4.91954 4.31419 4.32793C4.90594 3.73604 5.6927 3.41016 6.52945 3.41016C7.04196 3.41016 7.54843 3.53801 7.9986 3.77737C7.99942 3.77724 8.00038 3.77724 8.00107 3.77696C8.32928 3.71407 8.66643 3.68234 9.00316 3.68234C9.71741 3.68234 10.4105 3.82228 11.0627 4.09818C11.6926 4.36473 12.259 4.74623 12.7446 5.2321C13.2308 5.71811 13.6122 6.28404 13.8788 6.91425C14.1551 7.5667 14.2949 8.25966 14.2949 8.97404C14.2949 9.29608 14.2645 9.61839 14.2067 9.93329C14.4657 10.3977 14.6034 10.923 14.6034 11.4575C14.6033 12.2943 14.2777 13.0811 13.6858 13.6725Z" fill="white"/>
</svg>
