<svg width="28" height="28" viewBox="0 0 28 28" fill="none" xmlns="http://www.w3.org/2000/svg">
<path d="M18.9999 10.0999L11.1999 16.9999C11.0999 17.0999 11.0999 17.1999 11.0999 17.2999L10.7999 19.9999C10.7999 20.0999 10.6999 20.0999 10.5999 19.9999L9.39995 15.9999C9.29995 15.7999 9.39995 15.5999 9.59995 15.4999L18.6999 9.79991C18.9999 9.69991 19.1999 9.99991 18.9999 10.0999Z" fill="#222A30"/>
<path d="M14 0.199951C10.2 0.199951 6.69998 1.69995 4.19998 4.19995C1.69998 6.69995 0.0999756 10.2 0.0999756 14C0.0999756 17.8 1.59998 21.2999 4.19998 23.7999C6.69998 26.2999 10.2 27.7999 14 27.7999C17.8 27.7999 21.3 26.2999 23.8 23.7999C26.3 21.2999 27.9 17.8 27.9 14C27.8 6.39995 21.6 0.199951 14 0.199951ZM22.2 8.09995L19.4 21.7C19.3 22.3 18.5 22.6 18 22.2L13.7 19L11.5 21.2C11.1 21.6 10.5 21.4 10.3 20.9L8.69998 15.9L4.49998 14.6C3.89998 14.4 3.89998 13.7 4.49998 13.5L21.2 6.99995C21.7 6.89995 22.4 7.39995 22.2 8.09995Z" fill="#222A30"/>
</svg>
