<svg width="30" height="30" viewBox="0 0 30 30" fill="none" xmlns="http://www.w3.org/2000/svg">
<g clip-path="url(#clip0_137:198)">
<path d="M29.5368 2.98004C29.1703 2.53189 28.6215 2.28516 27.9911 2.28516C27.6485 2.28516 27.2855 2.35725 26.9124 2.49985L1.51799 12.1937C0.170335 12.708 -0.0111681 13.4798 0.000504848 13.894C0.0121778 14.3083 0.237169 15.0687 1.61183 15.5061C1.62007 15.5086 1.62831 15.5111 1.63655 15.5134L6.90404 17.0208L9.7527 25.1667C10.1411 26.2772 11.0129 26.9671 12.0282 26.9671C12.6684 26.9671 13.2981 26.6988 13.8492 26.1916L17.1074 23.1917L21.8331 26.9968C21.8335 26.9973 21.8342 26.9975 21.8347 26.998L21.8795 27.0341C21.8837 27.0374 21.888 27.0408 21.8921 27.044C22.4174 27.4514 22.9908 27.6665 23.5508 27.6668H23.5511C24.6454 27.6668 25.5167 26.8568 25.7705 25.6034L29.9314 5.05806C30.0985 4.2334 29.9584 3.49548 29.5368 2.98004ZM8.6662 16.7345L18.8288 11.5427L12.5009 18.2666C12.3972 18.3767 12.3237 18.5115 12.2876 18.6582L11.0674 23.6007L8.6662 16.7345ZM12.6584 24.8985C12.6162 24.9371 12.5739 24.9717 12.5316 25.0035L13.6636 20.4185L15.7229 22.0768L12.6584 24.8985ZM28.2086 4.70901L24.0477 25.2546C24.0077 25.4512 23.8797 25.9087 23.5508 25.9087C23.3883 25.9087 23.1842 25.8202 22.9752 25.6593L17.6203 21.3476C17.6196 21.3469 17.6187 21.3462 17.6178 21.3457L14.4315 18.78L23.5824 9.0564C23.8754 8.74512 23.9019 8.26836 23.6454 7.92641C23.3886 7.58446 22.9232 7.47688 22.5426 7.67143L7.49181 15.3605L2.15268 13.8329L27.5393 4.14207C27.7538 4.06013 27.9035 4.04297 27.9911 4.04297C28.0449 4.04297 28.1406 4.04938 28.1761 4.09309C28.2228 4.15009 28.2823 4.34441 28.2086 4.70901Z" fill="#FFB44E"/>
</g>
<defs>
<clipPath id="clip0_137:198">
<rect width="30" height="30" fill="white"/>
</clipPath>
</defs>
</svg>
