<svg width="15" height="15" viewBox="0 0 15 15" fill="none" xmlns="http://www.w3.org/2000/svg">
<path d="M14.0411 1.10178L0.697377 6.25918C-0.203121 6.58663 -0.203121 7.15968 0.53365 7.3234L3.89005 8.38763L5.19986 12.3171C5.36359 12.7264 5.28173 12.8901 5.69105 12.8901C6.0185 12.8901 6.18223 12.7264 6.34595 12.5627C6.42782 12.4808 7.16459 11.744 7.98322 10.9254L11.4215 13.4632C12.0764 13.7906 12.4857 13.6269 12.6494 12.8901L14.9416 2.16601C15.1872 1.26551 14.6142 0.77433 14.0411 1.10178ZM12.322 3.55769L5.93664 9.36999L5.69105 12.0715L4.38123 8.14204L11.9127 3.39396C12.2401 3.14837 12.5676 3.3121 12.322 3.55769Z" fill="black"/>
</svg>
